<?xml version="1.0" encoding="UTF-8"?><svg xmlns="http://www.w3.org/2000/svg" xmlns:xlink="http://www.w3.org/1999/xlink" height="223.3" preserveAspectRatio="xMidYMid meet" version="1.0" viewBox="-0.6 0.0 155.3 223.3" width="155.3" zoomAndPan="magnify"><g id="change1_1"><path d="M154.48,20.68c-0.24,0.04-0.48,0.07-0.72,0.09c-1.13-12.49-17.58-17.97-29-20.19c-0.09,0.24-0.16,0.49-0.28,0.69 c0.15-0.26,0.23-0.61,0.36-0.9c-0.12-0.12-0.24-0.25-0.35-0.37c-0.67,0.33-1.37,0.62-2.02,0.99C109.35,8.55,96.04,15.74,82.2,21.92 c-1.22,0.54-2.23,1.54-3.37,2.29c-0.57,0.37-1.18,0.79-1.82,0.95c-4.06,0.98-8.18,1.71-12.19,2.85 c-10.54,3.02-20.72,7.04-30.87,11.17c-9.15,3.72-18.31,7.4-27.08,11.96c-1.64,0.85-3.2,1.96-4.59,3.19c-0.88,0.78-1.57,1.92-2,3.03 c-0.88,2.26,0.37,3.99,2.77,3.79c1.77-0.15,3.59-0.49,5.25-1.11c3.84-1.44,7.6-3.11,11.39-4.68c0.68-0.28,1.37-0.53,2.05-0.8 c-1.15,1.13-2.44,1.9-3.73,2.69c-3.94,2.42-7.88,4.83-11.27,8c-1.2,1.12-2.33,2.39-3.17,3.79c-1.16,1.92-0.15,3.99,2.03,4.51 c0.76,0.18,1.61,0.29,2.36,0.12c1.96-0.42,4-0.75,5.8-1.59c4.83-2.25,9.55-4.75,14.31-7.15c0.49-0.25,1-0.49,1.5-0.73 c-0.28,0.71-0.71,1.09-1.1,1.51c-2.78,2.93-5.68,5.75-8.26,8.85c-1.2,1.44-2.06,3.35-2.52,5.18c-0.83,3.27,1.57,5.58,4.84,4.89 c1.26-0.26,2.54-0.64,3.66-1.24c2.35-1.26,4.72-2.53,6.85-4.11c3.48-2.57,6.77-5.39,10.15-8.09c0.52-0.42,1.06-0.82,1.59-1.23 c0.13,0.09,0.26,0.19,0.38,0.28c-0.53,3.95,0.57,8.03-1.27,11.87c-0.34,0.7-0.4,1.53-0.58,2.3c-0.65,2.84-0.54,5.46,1.94,7.02 c0,26.24,0,52.2,0,78.05c-0.4,0.15-0.54,0.24-0.66,0.23c-5.79-0.5-10.44,1.85-14.22,5.98c-6.08,6.65-8,14.52-6.27,23.29 c0.84,4.24,2.51,8.14,5.39,11.42c3.15,3.58,7.21,5.36,11.91,5.03c1.78-0.12,3.15,0.11,4.66,0.89c1.58,0.81,3.29,1.81,4.98,1.89 c7.01,0.34,13.02-2.02,17.61-7.52c2.31-2.78,3.77-5.97,4.33-9.54c1.17-7.41,0.31-14.52-3.2-21.22c-2.25-4.3-5.7-7.19-10.34-8.63 c-2.52-0.79-5.09-0.82-7.94-0.25c0-0.99,0-1.84,0-2.68c-0.1-25.84-0.19-51.67-0.29-77.51c0-0.22-0.07-0.46,0-0.64 c0.22-0.57,0.35-1.27,0.76-1.64c4.67-4.23,8.78-8.96,12.72-13.86c3.62-4.5,7.24-9.01,11.52-12.9c1.43-1.3,3-2.51,4.67-3.47 c4.09-2.33,10.36-2.57,14.15,3.06c0.4,0.6,0.81,1.2,1.26,1.76c1,1.23,1.9,2.58,3.06,3.63c2.92,2.63,6.1,2.09,8.17-1.26 c0.34-0.55,0.62-1.15,0.8-1.76c0.9-3.11,0.6-6.14-0.82-9.04c-1.42-2.89-3.46-5.31-5.74-7.54c-1.13-1.11-2.34-2.15-3.45-3.28 c-1.33-1.34-1.28-2.34,0.38-3.27c1.56-0.87,3.24-1.56,4.95-2.11c15.77-5.08,31.56-10.1,47.33-15.16c1.02-0.33,2.04-0.71,3-1.19 c0.34-0.17,0.51-0.69,0.75-1.05C154.65,20.97,154.56,20.83,154.48,20.68z M2.59,56.82c-0.2,0.38-0.51,0.8-0.62,1.21 C2.07,57.62,2.39,57.21,2.59,56.82c0.09-0.17,0.3-0.27,0.47-0.41l0,0C2.88,56.56,2.67,56.66,2.59,56.82z M8.57,57.8 c-0.26,0.11-0.52,0.21-0.79,0.3C8.04,58.01,8.31,57.91,8.57,57.8c0.48-0.2,0.96-0.39,1.44-0.59C9.53,57.41,9.05,57.6,8.57,57.8z M10.09,52.75c-0.05-0.42-0.13-0.85-0.21-1.28c0.49-0.25,0.94-0.49,1.39-0.72c-0.44,0.23-0.9,0.47-1.39,0.72 C9.96,51.9,10.04,52.33,10.09,52.75z M5.43,70.89c-0.02-0.05-0.03-0.11-0.04-0.17C5.4,70.78,5.41,70.83,5.43,70.89 c0.03,0.08,0.09,0.15,0.16,0.23C5.52,71.04,5.46,70.96,5.43,70.89z M5.92,68.85L5.92,68.85c0.24,0.16,0.48,0.3,0.72,0.42 C6.41,69.15,6.17,69.01,5.92,68.85z M12.77,63.1c-0.18,0.13-0.37,0.26-0.56,0.4c0.11,0.19,0.21,0.38,0.32,0.56 c-0.1-0.18-0.21-0.37-0.32-0.56C12.4,63.36,12.59,63.23,12.77,63.1z M8.78,69.82c0.39,0.01,0.76-0.04,1.14-0.13 C9.54,69.79,9.17,69.83,8.78,69.82z M12.07,68.73c-0.11,0.07-0.22,0.14-0.33,0.2C11.85,68.87,11.96,68.8,12.07,68.73 c1.43-0.92,1.7-2.24,0.94-3.77c-0.06-0.12-0.12-0.24-0.19-0.36c0.06,0.12,0.13,0.24,0.19,0.36C13.77,66.49,13.5,67.81,12.07,68.73z M33.97,60.29c-1.19,0.55-2.39,1.1-3.58,1.65C31.59,61.39,32.78,60.84,33.97,60.29c0.18-0.08,0.36-0.17,0.54-0.25 C34.33,60.12,34.15,60.2,33.97,60.29z M35.57,47.44c-0.16,0.07-0.31,0.13-0.47,0.21C35.26,47.57,35.41,47.5,35.57,47.44 c0.09-0.04,0.19-0.07,0.28-0.11C35.76,47.36,35.66,47.4,35.57,47.44z M37.54,48.27c-0.31,0.24-0.66,0.44-1,0.63 C36.89,48.71,37.23,48.51,37.54,48.27c0.18-0.14,0.3-0.35,0.4-0.58C37.84,47.92,37.72,48.14,37.54,48.27z M38.05,47.46 c0.05-0.1,0.09-0.21,0.15-0.3c-0.1-0.13-0.19-0.27-0.29-0.4c0.1,0.13,0.19,0.27,0.29,0.4C38.15,47.25,38.1,47.35,38.05,47.46z M39.28,56.65c0.65-0.52,1.31-1.04,2-1.57c-0.04-0.35-0.1-0.75-0.12-1.16c0.02,0.41,0.08,0.82,0.12,1.16 C40.6,55.61,39.94,56.14,39.28,56.65z M48.38,88.64c-0.07,0.05-0.14,0.11-0.21,0.16C48.24,88.75,48.31,88.7,48.38,88.64 c0.21-0.17,0.43-0.33,0.64-0.5C48.81,88.31,48.59,88.48,48.38,88.64z M49.09,80.67c-0.59-0.32-1.24-0.55-1.98-0.85 C47.85,80.12,48.5,80.35,49.09,80.67c0.43,0.24,0.8,0.51,1.09,0.81C49.89,81.18,49.52,80.91,49.09,80.67z M50.63,68.96 c-0.91-4.12-0.27-3.72,2.92-5.33C52.61,65.35,51.67,67.06,50.63,68.96z M51.79,52.72c0.58,0.32,1.15,0.67,1.69,1.05 C52.94,53.39,52.37,53.04,51.79,52.72z M53.32,84.46c-0.18,0.2-0.36,0.39-0.55,0.58C52.96,84.85,53.14,84.66,53.32,84.46 c0.56-0.63,1.13-1.27,1.69-1.9C54.45,83.2,53.88,83.83,53.32,84.46z M56.24,56.19c0.21,0.25,0.4,0.51,0.59,0.77 C56.64,56.7,56.45,56.44,56.24,56.19z M57.64,58.63c0.04,0.18,0.06,0.36,0.07,0.54C57.7,58.99,57.68,58.81,57.64,58.63z M60.16,31.51c-2.98,1.01-5.96,2.06-8.93,3.12C54.2,33.57,57.17,32.53,60.16,31.51c2.9-0.99,5.81-1.92,8.77-2.68 C65.97,29.59,63.06,30.53,60.16,31.51z M70.76,64.5c1.39-1.51,2.81-3,4.25-4.47C73.56,61.5,72.15,62.99,70.76,64.5z M75.52,59.53 c0.35-0.33,0.72-0.65,1.1-0.96C76.24,58.88,75.88,59.2,75.52,59.53z M79.8,26.19c-0.12,0.14-0.27,0.27-0.43,0.4 C79.53,26.46,79.68,26.33,79.8,26.19c0.3-0.34,0.62-0.64,0.95-0.91C80.42,25.55,80.1,25.85,79.8,26.19z M86.33,22.4 c2.23-0.98,4.45-1.97,6.64-3.03C90.78,20.43,88.56,21.42,86.33,22.4z M104.07,65.3c0.02,0.01,0.03,0.03,0.04,0.05 C104.1,65.33,104.09,65.31,104.07,65.3c-0.11-0.05-0.21-0.11-0.31-0.17C103.86,65.19,103.96,65.25,104.07,65.3z M102.7,58.12 c0.13-0.01,0.26-0.01,0.4-0.02C102.96,58.1,102.83,58.11,102.7,58.12c-0.44,0.03-0.84,0.16-1.14,0.41 C101.86,58.28,102.25,58.15,102.7,58.12z M100.41,64.54c0.71,0.83,1.56,1.53,2.63,1.49C101.96,66.08,101.12,65.37,100.41,64.54 c-0.66-0.76-1.28-1.55-1.89-2.36C99.12,62.99,99.75,63.78,100.41,64.54z M96.39,45.34c-0.3-0.31-0.56-0.63-0.76-0.95 C95.84,44.72,96.09,45.03,96.39,45.34c0.14,0.15,0.29,0.29,0.44,0.44C96.69,45.64,96.54,45.49,96.39,45.34z M101.29,36.91 c-0.19,0.06-0.37,0.12-0.56,0.19C100.92,37.03,101.11,36.97,101.29,36.91c2.09-0.66,4.19-1.32,6.28-1.98 C105.48,35.59,103.39,36.25,101.29,36.91z M121.37,3.74c-0.79,0.53-1.59,1.06-2.39,1.57C119.78,4.8,120.58,4.28,121.37,3.74 c0.31-0.21,0.62-0.42,0.92-0.64C121.98,3.32,121.68,3.54,121.37,3.74z M124.29,1.52c-0.11,0.09-0.21,0.18-0.32,0.27 C124.08,1.7,124.19,1.61,124.29,1.52c0.03-0.03,0.07-0.06,0.09-0.1C124.36,1.45,124.33,1.49,124.29,1.52z M55.87,121.59 c0.08,4.54,0.22,9.07,0.17,13.61c-0.07,6.55-0.28,13.1-0.44,19.65c-0.02,0.76-0.1,1.52-0.15,2.29c-1.31-2.23-1.86-28.31-1.17-36.08 c0.04-0.45,0.28-0.88,0.42-1.3C56.09,119.92,55.86,120.85,55.87,121.59z M40.78,118.35c0.11,5.55,0.28,11.09,0.29,16.64 c0.01,3.67-0.2,7.35-0.34,11.02c-0.03,0.66-0.19,1.32-0.29,1.98c-0.24-0.05-0.48-0.1-0.72-0.14c-0.06-0.69-0.15-1.38-0.19-2.07 c-0.44-9.43-0.34-18.87,0.06-28.3c0.01-0.18,0.23-0.35,0.29-0.44C40.91,117.14,40.77,117.82,40.78,118.35z M24.47,178.88 c-0.96,1.33-1.76,2.81-2.44,4.31c-0.66,1.46-1.08,3.03-1.75,4.95c-0.37-0.71-0.57-1.04-0.71-1.39c-0.07-0.19-0.06-0.43-0.03-0.64 c0.99-6.13,3.72-11.14,9.29-14.28c0.69-0.39,1.52-0.86,2.61,0.06c-1.3,1.15-2.55,2.17-3.69,3.3 C26.6,176.34,25.43,177.54,24.47,178.88z M59.88,123.23c0.34,0.49,0.74,0.82,0.77,1.18c0.11,1.15,0.13,2.31,0.12,3.46 c-0.05,4.98-0.12,9.96-0.21,14.93c-0.01,0.74-0.17,1.48-0.27,2.22c-0.17-0.04-0.34-0.08-0.51-0.12 C59,142.04,58.97,125.38,59.88,123.23z M22.52,174.55c-1.81,1.71-3.07,3.79-3.96,6.11c-0.26,0.69-0.64,1.35-0.97,2.05 c-1.13-0.52-1.11-1.26-0.83-1.93c0.77-1.85,1.39-3.82,2.49-5.46c1.88-2.81,4.72-4.59,7.71-6.1c0.27-0.14,0.63-0.09,1.39-0.18 c-0.52,0.62-0.73,0.95-1,1.19C25.75,171.68,24.09,173.06,22.52,174.55z M36.13,140.79c-0.07-5.97-0.11-11.94-0.15-17.92 c0-0.29-0.07-0.62,0.05-0.85c0.17-0.32,0.5-0.56,0.75-0.84c0.21,0.26,0.5,0.48,0.6,0.78c0.11,0.33,0.08,0.71,0.08,1.07 c-0.06,6.04-0.12,12.09-0.2,18.13c-0.01,0.46-0.18,0.92-0.27,1.39c-0.2,0.01-0.4,0.03-0.59,0.04 C36.3,141.98,36.13,141.39,36.13,140.79z M65.42,220.56c-0.68,0.19-1.38,0.54-2.08-0.46c1.51-0.93,3.09-1.73,4.47-2.78 c1.48-1.13,2.85-2.41,4.12-3.77c1.21-1.29,2.23-2.76,3.33-4.16c0.19,0.07,0.38,0.15,0.57,0.22c-0.25,1.91-1.36,3.49-2.47,4.99 C71.33,217.35,68.84,219.59,65.42,220.56z M75.94,217.61c0.14,0.16,0.28,0.31,0.42,0.47c-1.44,1.9-2.87,3.82-5.16,4.89 c-0.32,0.15-0.7,0.34-1.02,0.3c-0.43-0.06-0.84-0.33-1.26-0.51c0.23-0.32,0.39-0.73,0.7-0.95c1.75-1.23,3.52-2.42,5.3-3.62 C75.24,217.97,75.6,217.8,75.94,217.61z"/></g><g id="change2_1"><path d="M70.66,190.32c0.27,1.7,0.38,3.43,0.56,5.15c-0.12,3.06-0.4,6.09-1.58,8.92c-1.97,4.73-5.15,7.91-9.4,9.79 c-1.72-0.04-3.44-0.31-5.09-0.83c0.22-0.07,0.45-0.16,0.68-0.27c-0.8-0.34-1.2-0.62-1.63-0.68c-1.92-0.27-3.3-1.4-4.44-2.83 c-0.67-0.84-1.27-1.76-1.73-2.73c-3.46-7.38-3.31-14.61,0.93-21.67c2.59-4.32,6.23-6.68,11.4-6.37c0.75,0.04,1.5-0.05,2.25-0.08 c0.04-0.23,0.08-0.45,0.12-0.68c1.44,0.24,2.75,0.8,3.94,1.58c0.01,0.01,0.01,0.02,0.02,0.03 C68.83,182.89,70.06,186.51,70.66,190.32z" fill="#F58C82"/></g><g id="change3_1"><path d="M55.15,213.36c1.65,0.51,3.36,0.79,5.09,0.83c-1.55,0.68-3.24,1.2-5.06,1.54c-6.55,1.25-11-2.06-13.74-6.69 c-2.03-3.43-2.85-7.24-3.05-11.16c-0.3-5.8,0.66-11.35,3.61-16.45c1.21-2.09,2.74-3.87,4.69-5.31c6.75-4.99,15.35-3.51,19.99,3.51 c-1.19-0.78-2.5-1.34-3.94-1.58c0-0.01,0.01-0.03,0.01-0.04c-0.62-0.27-1.22-0.68-1.87-0.79c-3.73-0.61-7.17-0.02-10.09,2.6 c-2.25,2.02-3.86,4.49-4.99,7.24c-3.22,7.81-2.63,15.33,1.95,22.48c1.08,1.68,2.55,2.94,4.42,3.67 C53.06,213.54,53.98,213.74,55.15,213.36z M37.32,205.29c-1.59-5.37-1.68-10.8-0.62-16.27c0.66-3.43,1.79-6.72,3.77-9.59 c1.18-1.7,2.67-3.19,4.1-4.71c0.5-0.54,1.27-1,0.77-1.76c-0.28-0.43-1.05-0.59-1.63-0.73c-0.48-0.12-1-0.04-1.5-0.01 c-3.81,0.25-6.85,2.08-9.48,4.68c-8.99,8.89-8.44,23.2-1.68,31.68c2.64,3.31,6.26,4.67,10.46,4.79 C39.59,210.86,38.18,208.22,37.32,205.29z" fill="#F3757A"/></g><g id="change4_1"><path d="M47.59,91.35c0.08-0.05,0.3-0.23,0.56-0.34c0.32-0.14,0.66-0.23,1.15-0.39c0.04,0.62,0.1,1.09,0.1,1.56 c-0.08,25.81-0.17,51.61-0.26,77.42c0,0.5,0,1.01-0.02,1.51c-0.03,0.8-0.5,1.14-1.53,1.16C47.59,145.33,47.59,118.41,47.59,91.35z M54.52,59.71c0.23,0.29,0.73,0.36,1.35,0.64c-1.54-4.96-9.35-8.97-13.22-6.76C47.62,54.18,51.54,56.03,54.52,59.71z M48.29,67.23 c-0.63,0.41-1.32,0.91-1.35,1.44c-0.11,1.82,0.01,3.66,0.05,5.49C49.37,72.12,48.28,69.63,48.29,67.23z" fill="#FFF"/></g><g id="change5_1"><path d="M124.29,1.52c0.24-0.21,0.34-0.59,0.47-0.93c11.42,2.22,27.87,7.7,29,20.19c-0.73,0.08-1.47,0.15-2.17,0.37 c-16.77,5.23-33.54,10.47-50.3,15.77c-1.49,0.47-2.95,1.2-4.26,2.05c-2.57,1.66-2.78,4.17-0.64,6.38c1.15,1.19,2.43,2.27,3.61,3.43 c2.17,2.13,4.16,4.42,5.46,7.2c0.34,0.72,0.5,1.51,0.75,2.29c-1.39-0.07-2.46-0.22-3.52-0.15c-0.9,0.06-1.61,0.52-1.71,1.61 c-0.23,2.46,0.84,4.42,3.08,5.58c0.07,0.04,0.07,0.23,0.12,0.41c-1.64,0.82-2.82-0.06-3.77-1.17c-1.31-1.53-2.51-3.16-3.68-4.81 c-4.57-6.44-12.32-6.27-17.13-3.27c-1.64,1.02-3.24,2.2-4.59,3.57c-2.89,2.92-5.66,5.97-8.37,9.06c-4.47,5.1-8.8,10.32-13.32,15.37 c-1.43,1.59-3.24,2.85-4.94,4.18c-0.74,0.58-1.71,1.03-2.62,0.49c-0.95-0.56-0.73-1.63-0.7-2.56c0-0.13,0.13-0.25,0.24-0.44 c0.46,0.15,0.92,0.34,1.39,0.45c1.86,0.44,3.5-0.43,4.17-2.2c0.53-1.38-0.14-2.82-1.78-3.71c-0.68-0.37-1.42-0.61-2.29-0.98 c0.44-0.86,0.8-1.62,1.22-2.36c2.98-5.27,5.92-10.57,8.99-15.79c0.99-1.68,0.94-3.1-0.17-4.59c-0.39-0.52-0.78-1.05-1.25-1.49 c-2.59-2.42-5.66-3.99-9.13-4.64c-1.08-0.2-2.3,0-3.39,0.29c-1.32,0.35-1.97,1.39-1.91,2.79c0.02,0.41,0.08,0.82,0.12,1.16 c-1.82,1.43-3.5,2.79-5.23,4.08c-0.62,0.47-1.36,0.8-2.07,1.13c-4.77,2.21-9.55,4.39-14.32,6.61c-2.68,1.25-5.28,2.66-8.01,3.78 c-1.43,0.59-3.05,0.78-4.61,0.96c-0.53,0.06-1.44-0.34-1.6-0.75c-0.19-0.48,0.26-1.21,0.49-2.03c2.31,1.53,4.29,1.08,6.15-0.12 c1.43-0.92,1.7-2.24,0.94-3.77c-0.24-0.48-0.52-0.95-0.8-1.46c0.79-0.55,1.41-1.04,2.09-1.45c7.06-4.2,14.13-8.39,21.21-12.58 c0.68-0.4,1.42-0.73,2.05-1.2c0.32-0.24,0.44-0.74,0.66-1.12c-0.1-0.13-0.19-0.27-0.29-0.4c-0.78,0.22-1.6,0.38-2.34,0.68 c-1.26,0.52-2.43,1.32-3.73,1.69c-7.98,2.3-15.61,5.52-23.27,8.67c-1.39,0.57-2.87,0.95-4.33,1.29c-0.65,0.15-1.6,0.21-2-0.14 c-0.71-0.64,0-1.44,0.35-2.12c0.09-0.17,0.3-0.27,0.47-0.41c1.78,1,3.57,1.16,5.38,0.19c2.19-1.18,1.8-3.18,1.44-5.13 c0.87-0.45,1.63-0.86,2.4-1.23c8.98-4.28,18.14-8.14,27.51-11.51c6.78-2.44,13.55-4.91,20.37-7.23c5.8-1.97,11.66-3.74,17.81-4.34 c0.65-0.06,1.4-0.49,1.84-0.99c1.19-1.36,2.71-2.1,4.31-2.8c2.97-1.31,5.94-2.61,8.86-4.01c9.76-4.68,19.4-9.57,28.4-15.63 C122.38,3.06,123.36,2.31,124.29,1.52z M24,73.17c1.68,1.53,2.87,3.09,1.72,5.22c-1.36,2.53-3.74,1.83-5.91,1.59 c-0.15,2.38,0.55,3.1,2.63,2.63c1.04-0.23,2.06-0.64,3.03-1.1c4.14-1.95,7.79-4.65,11.3-7.53c5.29-4.34,10.3-9.03,16.22-12.56 c0.1-0.06,0.13-0.23,0.27-0.49c-2.28-3.08-5.57-4.54-9.36-5.52C37.07,61.13,29.98,66.44,24,73.17z M106.57,60.56 c-1.38-0.27-2.59-0.51-3.86-0.76c0.08,3.13,0.5,3.54,3.41,3.35C106.27,62.3,106.4,61.55,106.57,60.56z M20.39,78.02 c1.88,0.96,3.04,0.9,3.67-0.04c0.6-0.91,0.3-1.77-1.32-3.47C21.94,75.7,21.17,76.84,20.39,78.02z M47.45,85.11 c0.78,0.14,1.49-0.3,1.62-1.08c0.07-0.44-0.25-1.11-0.61-1.41c-0.63-0.53-1.44-0.86-2.33-1.37c-0.29,1.13-0.52,2.01-0.78,3.02 C46.14,84.6,46.77,84.98,47.45,85.11z M9.95,67.8c1.72-0.69,1.85-1.29,0.74-3.17c-0.67,0.54-1.34,1.06-1.97,1.61 c-0.53,0.46-1.03,0.96-1.62,1.52C8.27,68.67,9.14,68.12,9.95,67.8z M4.03,55.12c3.05,0.8,4.34-0.09,4.1-2.7 C6.6,53.05,5.22,53.82,4.03,55.12z" fill="#FDD2B9"/></g></svg>