<?xml version="1.0" encoding="UTF-8"?><svg xmlns="http://www.w3.org/2000/svg" xmlns:xlink="http://www.w3.org/1999/xlink" data-name="Layer 3" height="927.9" preserveAspectRatio="xMidYMid meet" version="1.0" viewBox="157.1 25.1 726.5 927.9" width="726.5" zoomAndPan="magnify"><g id="change1_1"><path d="M391.43,689.93c-.23,67.35-35.35,155.55-67.65,210.25-8.31,14.93-31.57,26.33-43.75,10.3-3.98-6.23-3.02-14.64-.27-21.5,28.88-72.06,42.65-119.49,51.3-202.09l60.36,3.04Z" fill="#ea7174"/></g><g id="change2_1"><path d="M346.87,778.88c-10.08-1.19-19.84-4.87-28.28-10.51-8.68,40.29-20.82,75.66-38.83,120.61-2.75,6.86-3.7,15.27,.27,21.5,12.19,16.03,35.43,4.63,43.75-10.3,19.49-33.01,40-78.22,53.26-123.69-9.95,2.35-20.05,3.59-30.17,2.4Z" fill="#fff7fa"/></g><g id="change1_2"><path d="M494.9,570.38c4.02,4.89,10.07,3.92,15.22,1.2,14.42-6.69,47.14-23.71,47.14-23.71,0,0,4.87,73.49,10.09,110,1.21,8.44,3.14,18.02,10.49,22.34,8.52,5.01,20.09-.41,25.19-8.88,5.1-8.46,5.47-18.85,5.69-28.73,.61-26.56,5.14-119.28-.01-138.09-7.52-27.48-67.89-13.99-100.83-5.57,0,0-20,64.29-13,71.44Z" fill="#ea7174"/></g><g id="change2_2"><path d="M598.19,492.41c1.11,19.56-16.73,45.98-40.93,55.45,.29,4.26,5.03,74.6,10.09,110,1.21,8.44,3.14,18.02,10.49,22.34,8.52,5.01,20.09-.41,25.19-8.88,5.1-8.46,5.47-18.85,5.69-28.73,.61-26.56,5.14-119.28-.01-138.09-1.53-5.61-5.27-9.51-10.52-12.09Z" fill="#fff7fa"/></g><g id="change3_1"><path d="M562.99,642.73c13.77,16.01,25.65,13.94,41.94,2.34,1.24-1.06,2.88-1.2,4.07,0,3.51,2.78,6.06,6.6,7.35,10.89,3.98,13.23,4.89,23.3,12.28,34.98,5.88,9.29,13.09,19.1,11.86,30.03-.87,7.74-5.79,14.09-11.45,19.69-2.98,2.94-7.73,3.05-10.87,.29-14.29-12.56-64.25-58.9-64.25-58.9-4.3-3.84-5.5-10.08-2.93-15.24l11.99-24.07Z" fill="#ffc176"/></g><g id="change1_3"><path d="M588.53,426.27c6.2-2.26,4.51-11.49-2.09-11.26-11.28,.39-27.46,7.28-44.41,20.93-22.22,16.08-86.58,32.13-111.35,43.56,4.8,17.25,13.36,48.42,35.51,47.35,28.18-28.82,70.91-58.45,88.86-56.17,19.7,2.5,25.65-2.77,27.29-8.88,2.24-8.91-15.32-1.85-17.95-8.39-1.22-2.08-1.09-4.71,.11-6.79,6.81-11.79,16.35-17.54,24.03-20.34Z" fill="#ea7174"/></g><g id="change4_1"><path d="M463.53,596.32c-5,49.35-27.16,116.84-27.16,116.84-37.11-4.32-70.83-11.86-105.3-26.27,0,0,5.12-83.1,4.59-123.8l127.88,33.24Z" fill="#562629"/></g><g id="change1_4"><path d="M276.07,464.6c-51.37,38.13-41.95,53.1-38.65,110.79,.58,21.23,29.78,12.12,31.9,49.72-.5,6.85-10.67,4.78-12.21-2.33-2.41-8.35-24.45-16.11-37.02-1.82-6.87,8.39,6.58,23.03-14.93,30.74-8.6,2.32-25.51,1.11-32.71-4.26-6.59-5.07-15.33-25.11-7.89-35.85,10.81-15.59,27.08-18.85,44.54-21.46-9.04-47.3-44.49-107.79,25.28-163l41.68,37.47Z" fill="#ea7174"/></g><g id="change4_2"><path d="M331.07,556.94c17.67,91.49,61.43,101.27,120.19,77.55,24.98-10.57,50.68-21.45,73.01-36.8,1.29-1.96,.92-4.53,.49-6.83-5.62-30.64-11.24-61.28-16.86-91.91-19.12,2.77-51.08,11.31-51.08,11.31-5.21-.91-10.81-3.77-16.02-2.79l-109.73,49.48Z" fill="#562629"/></g><g id="change3_2"><path d="M274.42,900.84c1.34-4.75,7.21-6.43,10.91-3.16,4.09,3.61,9.3,7.16,13.86,7.04,9.19-.25,17.66-5.32,24.31-11.67,2.41-2.3,4.82-4.9,8.04-5.76,8.34-2.3,19.94,9.82,27.2,14.12,7.71,5.48,15.42,10.97,22.84,16.84,7.45,5.27,12.22,12.48,11.68,21.89-.04,5.26-4.39,9.46-9.65,9.46h-101.79c-6.46,0-11.66-5.29-11.58-11.75,.13-10.34,.94-25.51,4.18-37.01Z" fill="#ffc176"/></g><g id="change5_1"><path d="M341.06,356.44c5.06-3.18,10.31-3.03,15.36,.1,57.22,30.43,83.42,94.27,100.39,153.71,0,0-82.89,31.74-125.75,46.69-7.22-31.76-13.24-62.94-15.11-95.45,0,0-29.23,22.77-44.58,31.84-2.13,1.26-36.99-66.19-36.99-66.19,0,0,46.52-41.11,106.68-70.69Z" fill="#7aaeed"/></g><g id="change1_5"><path d="M370.59,123.77c-48.94,6.44-121.45,93.15-43.1,189.03,11.94,13.24,10.5,29.95,11.53,46.36,.23,4.32,2.57,8.24,6.26,10.51,7.33,4.52,20.98,11.54,38.14,13.96-.99-11.58-1.4-23.21-1.25-34.84,20.49,5.5,45.11,4.43,69.21-14.12,81.91-63.06-6.19-222.42-80.78-210.9Z" fill="#ea7174"/></g><g id="change4_3"><path d="M210.56,227.18c2.97,16.43,15.64,31.38,32.02,34.62-5.88,11.58,3.08,27.76,16.01,28.93,2.96,.27,6.34,.02,8.45,2.11,1.16,1.15,1.66,2.78,2.45,4.21,3.44,6.25,11.86,7.82,18.91,6.73s13.78-4.13,20.91-4.36c7.45-.25,15.46,2.49,22.07-.98,7.29-3.82,9.21-13.2,10.31-21.36,1.3-9.64,1.73-21.4-6.28-26.91,3.44-4.68,3.47-11.58,.09-16.3-.83-1.15-1.88-2.34-1.78-3.75,.08-1.1,.85-2,1.56-2.85,8.79-10.48,12.77-24.85,10.62-38.36,20.25,8.33,46.38-4.45,52.24-25.55,7.14,9.95,20.77,14.71,32.55,11.37,1.64-.46,3.38-1.07,5-.54,2.02,.66,3.08,2.79,4.3,4.53,4.07,5.83,11.3,8.35,17.2,12.3,15.65,10.47,19.65,23.29,25.5,50.23,6.58-3.26,11.36-12.13,11.11-19.46-.08-2.22-.53-4.49,.05-6.64,.72-2.62,2.84-4.56,4.71-6.52,15.59-15.19,16.15-44.22-6.02-53.09,12.23-24.91,2.97-60.65-28.55-60.85-2.6,.16-5.5,.62-7.54-1-1.31-1.04-1.92-2.71-2.54-4.27-6.47-16.42-20.31-29.78-36.95-35.65-20.04-7.19-38.75-2.57-56.78,7.19-3.78,.85-7.61-.78-11.2-2.24-19.71-8.02-43.15-11.5-61.62-.93-14.09,8.06-23.01,23.2-27.1,38.92-1.05,6.4-4.41,9.34-10.22,11.74-14.9,7.43-25.02,22.59-28.02,38.76-1.61,8.69,.04,16.35,.71,24.96,.63,8.06-3.55,13.59-6.88,20.61-5.05,10.65-7.38,22.72-5.27,34.42Z" fill="#562629"/></g><g id="change1_6"><path d="M292.51,301.33c-8.36-10.97-9.67-28.9-.94-39.99,4.27-5.44,10.83-8.7,17.3-8.08,12.67,1.22,20.09,14.88,25.12,26.39,21.47,49.24-27.28,40.36-41.48,21.68Z" fill="#ea7174"/></g><g id="change2_3"><path d="M595.18,225.06c14.65,77.48,105.83,121.59,175.67,84.99,112.78-58.67,75.92-227.01-51.1-233.05-77.63-3.91-141.25,72.6-124.58,148.06Z" fill="#fff7fa"/></g><g id="change4_4"><path d="M784.55,168.69h0s19.05,22.17,28.14,39.5c0,0-7.72,25.43-20.25,39.12,0,0-24.03-.98-42.17-6.41-8.41-20.44-8.83-41.5-8.83-41.5,0,0,25.72-24.27,43.11-30.72Z" fill="#562629"/></g><g id="change4_5"><path d="M676.67,137.07h0s9.01,27.18,10.79,46.27c0,0-16.46,20.16-32.91,27.9,0,0-21.4-9.83-35.82-21.5,0-21.65,7.45-40.88,7.45-40.88,0,0,32.33-12.41,50.49-11.78Z" fill="#562629"/></g><g id="change4_6"><path d="M719.76,77.01c-1.56-.05-3.12-.07-4.67-.06,.97,4.47,2.79,11.3,5.89,18.35,19.22,5.43,40.69,11.5,40.69,11.5,0,0,8.89-5.49,16.87-12.34-17.77-10.54-38.12-16.75-58.78-17.45Z" fill="#562629"/></g><g id="change4_7"><path d="M682.54,263.03l-23.25,22.35,3.91,25.74c20.31,11.4,44.31,13.88,66.51,10.83l6.88-20.03-14.37-30.35-39.68-8.54Z" fill="#562629"/></g><g id="change2_4"><path d="M599.81,724.34s11-21.97,31.53-26.2l7.63,8.25v20.57l-13.75,15.8-7.04-1.82-18.37-16.6Z" fill="#fff7fa"/></g><g id="change2_5"><path d="M371.46,910.54s-19.16,10.3-19.82,38.89h31.97s9.87-1.46,9.65-11.13-7.17-16.2-7.17-16.2l-14.64-11.56Z" fill="#fff7fa"/></g><g id="change4_8"><path d="M220.33,637.56c.29-3.75-.61-7.52-.16-11.26,3.31-11.72,20.14-13.53,29.53-8.22,2.87,1.58,4.86,3.31,5.76,6.52,1.88,5.41,9.23,9.2,13.98,4.95,2.79-2.56,1.73-6.67,1.28-9.97-1.04-8.1-4.24-16.08-10.19-21.82-5.34-5.46-12.6-7.88-17.9-13.42-2.37-2.64-3.33-6.17-3.31-9.62-.45-14.05-2.41-28.01-2.81-42.06-1.71-21.69,7.65-38.41,23.63-52.41,2.84,4.92,5.5,10.03,9.12,14.39,1.53,1.47,3,.78,4.61-.2,13.9-8.7,27.03-18.58,40.06-28.51,2.44,31.13,7.55,62.36,15.39,92.51,1.05,6.57,2.39,13.21,4.11,19.76-1.84,65.28-3.26,131.12-18.23,195.01-7.55,33.57-18.52,66.24-30.95,98.3-2.82,8.04-6.92,15.69-8.66,24.07-1.26,.95-2.24,2.24-2.87,3.71-2.98,7.81-3.43,16.64-4.22,24.95-1.39,15.12-1.75,28.77,17.83,27.64,25.18,0,50.36,0,75.54-.01,7.23,0,14.47,0,21.7,0,18.22-1.31,13.06-26.13,1.71-33.5-10.88-9.01-22.69-16.84-34.14-25.09-4.94-3.46-10-7.92-16.25-8.41,28.68-54.98,51.75-114.45,57.71-176.57,14.44,3.1,29.09,5.33,43.76,7.03,.97,.11,1.83-.76,2.1-1.6,8.53-26.37,15.64-53.25,21.27-80.39,16.94-7.08,33.51-15.06,49.6-23.89,3.19-1.75,6.37-3.54,9.53-5.36,2.7-1.55,6.27-3.04,7.67-6.02s.6-6.29,.03-9.38c-1.27-6.93-2.54-13.85-3.81-20.78,10.88-5.38,21.68-10.91,32.46-16.48,1.08,21.63,2.42,43.25,4.25,64.83,.63,7.37,1.32,14.74,2.13,22.1-.16,.95-.32,1.9-.58,2.84-4.09,8.04-8.06,16.16-12.1,24.23-5.37,11.38,2.61,18.21,10.56,25.06,6.2,5.72,12.41,11.44,18.61,17.17,12.61,11.63,25.12,23.4,38.03,34.69,2.32,2.02,5.16,3.28,8.29,2.96,8.62-1.3,17.27-15.11,18.37-23.27,2.19-15.52-10.35-26.87-16.16-39.95-6.12-12.41-4.67-28.64-15.58-38.36,.98-41.73,3.59-83.52,1.73-125.25,.96-27.56-17.83-33.34-41.53-32.65-21.99,.7-43.89,5.14-64.96,11.14-1.17,.18-2.34,.36-3.51,.56,14.31-10.26,29.37-21.06,46.83-24.82,5.47-.8,10.94,.9,16.45,.45,7.49-.29,15.98-2.73,18.11-10.86,2.62-12.39-17.34-3.17-18.68-11.34,.44-7.68,11.56-16.94,18.05-20.39,4.08-2.18,9.75-3.01,10.63-8.41,.79-4.79-2.82-9.12-7.71-9.03-18.48,1.09-34.16,12.65-48.45,23.38-28.47,16.12-61.03,23.13-91.43,34.71-9.3-25.81-21.55-50.81-38.14-72.75-6.57-9.2-14.76-17.09-22.47-25.19-2.82-6.87-1.58-14.69-1.91-21.96,34.77,9.12,72.68-9.04,90.19-39.86,11.87-20.6,13.87-45.45,10.15-68.57,8.83-5.03,12.71-15.83,11.38-25.55,.13-3.84,3.68-6.26,5.98-8.95,14.44-15.42,14.59-44.21-6.22-54.07,11.51-25.43,.21-62.46-31.78-61.84-1.76,.12-4.25,.65-5.81-.45-1.55-1.09-2.08-3.75-2.79-5.4-7.44-17.26-22.87-30.89-40.93-36.09-18.03-5.35-37.52-1.68-53.41,7.88-4.67,1.73-9.74-1.34-14.02-2.96-4.38-1.66-8.87-3.06-13.43-4.13-27.07-7.06-54.86,.96-68.24,26.84-3.08,5.65-5.42,11.71-7.05,17.94-.52,2-.94,4.18-2.19,5.87-2.68,3.25-7.13,4.17-10.53,6.48-14.38,8.82-23.9,24.71-26.01,41.33-1.58,9.83,2.64,19.76,.33,29.44-1.24,4.15-3.58,7.86-5.47,11.73-4.3,8.83-6.85,18.64-6.6,28.5,.65,19.12,13.17,38.71,32.22,43.78-3.89,11.36,3.11,25.11,14.58,28.81,3.69,1.53,8.74-.3,11.58,2.93,3.95,11.13,17.07,12.91,27.19,10.04,8.81,9.16,22.78,15.27,35.66,12.76,8.16,11.29,7.44,25.5,8.06,38.79-37.77,17.95-72.73,42.34-104.54,69.39-30.04,20.8-45.88,57.1-41.52,93.28,2.4,23.59,10.12,46.21,15.62,69.18-18.92,2.61-45.63,10.83-46.87,33.48,.17,9.4,3.82,19.12,10.21,26.05,5.95,5.64,14.75,6.22,22.52,6.9,11.77,1.5,26.88-3.79,28.01-17.26Zm50.13-146.31c-.22,.16-.47,.15,0,0h0Zm17.3,383.56c13.19-33.6,24.77-67.94,32.41-103.24,1.55,.93,3.13,1.8,4.75,2.61-6.9,41.99-20.14,82.96-40.47,120.41-1.2-.59-2.57-.8-3.9-.74,1.93-6.48,4.86-12.69,7.21-19.04Zm30.25,20.07c-4.38,3.43-9.21,6.05-14.72,7.26,19-38.63,33.63-79.47,43.27-121.43,3.99,.47,7.99,.57,11.98,.39-8.66,39.41-22.35,77.75-40.53,113.78Zm10.37-65.93c-8.23,25.22-18.6,49.68-30.17,73.54-3.77-.37-7.27-2.96-10.12-5.33,20.34-37.64,34.43-78.81,40.91-121.12,4.26,1.79,8.69,3.14,13.23,4-4.02,16.47-8.51,32.81-13.84,48.91Zm-16,118.36c-7.28,0-14.57,0-21.85,0-10.14,.58-19.03,.24-17.94-12.63,.24-11.38,1.27-22.81,4.13-33.84,7.06-10.54,11.56,13.56,33.85,3.52,13.26,10.29,27.53,19.48,42.9,26.28-2.15,5.79-3.45,10-3.88,16.68-12.41,0-24.81,0-37.22,0Zm70.94-24.73c5.83,4.67,9,12.64,7.24,19.98-1.32,3.77-5.43,5.21-9.13,4.76-9.22,0-18.45,0-27.67,0,1.17-13.01,7.16-25.88,17.15-34.42,4.21,3.12,8.48,6.21,12.42,9.68Zm-15.97-12.3c-5.1,4.52-8.93,10.16-12,16.14-2.88-1.26-5.66-2.48-8.42-3.94,2.87-6.73,6.43-13.27,11.72-18.44,2.91,2.07,5.82,4.15,8.71,6.25Zm-12.33-8.83c-5.08,5.5-9.42,11.93-11.57,19.15-3.04-1.67-6.06-3.37-8.98-5.23,4.6-6.19,6.56-14.49,12.86-19.44,2.55,1.88,5.11,3.7,7.69,5.52Zm-14.54-10.13c1.05,.61,2.08,1.27,3.09,1.95-5.63,5.52-9.1,13.08-12.09,20.22-5.65-3.52-11-7.46-16.38-11.37,2.35-1.36,4.56-2.92,6.67-4.62,5.83-5.3,10.37-11.62,18.71-6.18Zm6.61-40.96c-5.46,11.98-11.32,23.78-17.63,35.34-.95,.38-1.88,.92-2.72,1.53,15.68-34.01,28.92-69.58,35.98-106.42,3.79-.36,7.57-.96,11.31-1.73-7.29,24.35-16.4,48.17-26.94,71.29Zm28.15-75.41c-18.2,4.54-38.24,3.18-54.2-7.3,5.51-25.57,9.16-51.52,11.95-77.52,18.06,7.35,36.65,13.02,55.62,17.28-2,22.88-6.97,45.5-13.37,67.54Zm60.77-67.82c-.38,1.22-.77,2.43-1.16,3.65-34.69-4.16-69.04-11.99-101.37-25.4,1.83-31.15,3.41-62.33,4.21-93.53,21.17,58,64.14,67.49,117.36,43.41-5.15,24.24-11.63,48.23-19.04,71.88Zm86.48-110.73c-20.04,13.39-42.63,23.42-64.75,33.1-71.58,34.08-111.2,2.7-124.37-70.95,37.99-13.55,75.74-27.76,113.44-42.09,18.97-7.56,39.29-11.23,59.3-15.02,5.28,28.77,10.58,57.53,15.87,86.29,.34,2.81,1.77,5.95,.51,8.67Zm37.06-47.5c2.28-.98,4.49-2.09,6.63-3.32,1.03,34.28,3.16,68.55,6.06,102.73-1.96-1.39-3.71-3.06-5.41-4.76-3.61-31.44-5.6-63.05-7.28-94.64Zm33.63-30.88c1.56,43.44,2.14,86.9,2.07,130.37-2.24,1.22-4.57,2.24-7.03,2.91-2.13-39.39-3.49-78.88-6.21-118.21,4.36-4.48,8.11-9.59,11.16-15.07Zm-14.8,18.64c1.64,38.47,3.79,76.92,5.8,115.37-2.6,.24-5.28-.2-7.66-1.26-2.82-35.74-4.41-71.64-6.81-107.36,3.06-2.02,5.96-4.28,8.67-6.75Zm-22.31,144.01c-5.04-4.11-4.68-10.9-1.27-15.95,0,0,9-18.06,9-18.06,5.82,6.3,14.04,11.39,22.87,9.55,8.95,16.23,17.66,32.6,26.86,48.68-5.56,4.42-10.68,9.42-14.32,15.58-14.45-13.2-28.81-26.48-43.14-39.81Zm60.24-15.91c1.05,4.07,2.02,8.16,3.33,12.16-4.28,2.06-8.32,4.79-11.75,8.09-1.94-3.53-3.87-7.07-5.81-10.6,4.06-4.04,9.38-6.66,14.23-9.64Zm19.05,64.16c-1.59,2.86-3.63,5.41-5.86,7.8-3.35,4.25-7.34,5.31-11.26,1.04-5.34-4.75-10.62-9.56-15.88-14.39,4.92-8.46,19.25-21.92,28.91-23.89,5.72,8.64,9.82,19.79,4.1,29.44Zm-6.58-33.34c-4.33,1.09-8.08,3.82-11.62,6.5-2.19-4.47-4.75-8.76-7.11-13.14,3.23-3.19,6.99-5.82,11.06-7.86,1.92,5.13,4.61,9.94,7.68,14.5Zm-15.69-41.65c.95,1.99,1.56,4.17,2.1,6.35-5.29,3.06-10.63,6.16-15.31,10.12-2.81-5.13-5.63-10.26-8.48-15.37,5.74-1.74,10.68-5.64,15.75-8.44,2.6,1.73,4.56,4.56,5.93,7.35Zm-8-152.38c2.19,3.99,2.5,9.31,2.93,13.89,2.47,42.13-.6,84.34-1.59,126.48-2.66,.51-4.66,2.75-6.98,4.02-.14-44.69,.66-90.18-3.1-134.49,2.03-4.85,3.43-10,3.72-15.28,2.06,1.42,3.76,3.15,5.01,5.38Zm-40.87-10.72c10.7-.93,22.22-.94,32.14,3.23-1.02,22.68-18.53,42.8-38.77,51.64-12.11,4.87-23.64,12.19-35.65,17.68-3.81-20.78-7.63-41.71-11.44-62.5,17.68-4.48,35.55-8.32,53.72-10.05Zm-58.84-35.79c12.72-4.83,25.97-9.27,37.18-17.15,5.83-4.46,11.66-8.79,18.09-12.37,4.57-2.83,32.83-16.07,29.48-2.96-.9,1.89-3.29,2.31-5.04,3.06-5.14,2.22-9.86,5.39-13.89,9.28-4.23,4.81-10.58,10.43-9.27,17.45,3.02,9.64,13.13,3.88,18.73,7.54-1.65,12.47-18.72,9.21-27.69,8.76-22.19,2.3-40.8,17.59-58.27,30.32-12.22,2.38-24.32,5.46-36.34,8.58-3.27-11.01-6.7-21.98-10.52-32.81,19-7.05,38.49-12.76,57.53-19.69Zm-228.17-154.29c-9.51-3.7-4.43-12.61-18.17-12.12-11.66-.92-19.77-15.32-14.7-25.82,.54-1.09,.16-2.71-1.21-2.98-25.51-5.2-36.82-34.3-28.62-57.49,2.29-8.59,8.3-15.71,10.14-24.42,1.33-9.63-2.35-19.32-.65-28.98,2.42-15.55,11.82-30.28,25.78-37.84,10.78-4.6,11.57-8.48,14.23-19.12,5.14-15.38,15.57-29.72,31.26-35.42,16.63-6.05,35.21-2.64,51.27,3.58,4.55,1.76,9.23,4.11,14.24,2.97,4.37-1.2,7.94-4.26,12.17-5.83,8.16-3.45,17.09-5.02,25.93-4.69,22.57,.72,43.48,15.36,52.33,36.07,2.5,8.27,6.52,8.85,14.3,8.19,11.54-.04,21.82,8.17,26.63,18.32,3.85,8.11,4.21,17.69,2.5,26.39-.87,4.41-2.29,8.68-4.11,12.8-.64,1.45-.13,2.85,1.39,3.42,11.72,4.34,17.41,18.05,15.24,29.79-1.2,6.49-4.25,12.66-8.53,17.67-2.18,2.56-5,4.75-6.4,7.88-1.54,3.46-.43,7.04-.73,10.65-.42,5.13-3.19,10.48-7.31,13.78-4.65-24.69-11.65-42.92-35.55-54.18-12.04-7.24-5.39-14.64-23.04-9.97-22.54,1.72-25.94-17.99-29.67-10.64-5.66,20.01-30.24,31.94-49.46,24-1.76-.71-2.96,1.28-2.74,2.74,1.93,12.58-1.69,25.96-9.72,35.84-8.18,8.65,7.67,10.7-.5,23.72-.72,1.02-.11,2.36,.79,2.99,9.22,7.59,5.66,22.01,3.9,32.25-21.67-64.37-73.03-22.2-48.08,16.95-4.3,.85-8.67,1.07-12.9-.48Zm55.3,15.7c1.27-.6,2.48-1.35,3.61-2.29,2.15-1.78-.93-4.83-3.06-3.06-10.89,7.75-29.06-.79-37.46-9.13-.19-.53-.55-.99-1.04-1.25-8.33-11.03-9.88-28.87-.02-39.48,6.63-7.6,18.62-7.66,25.39-.23,8.09,8.39,12.78,19.67,16.04,30.71,.24,.93,.9,1.4,1.63,1.51,3.88,1.29,5.44-11.81,6.03-14.57,1.41-9.73,2.32-21.67-5.39-28.97,3.5-6.2,1.93-13.74-2.27-19.1-.2-.88,.79-1.69,1.31-2.33,8.19-10,12.28-23.23,11.19-36.1,19.61,5.83,42.77-5.4,50.49-24.34,8.25,8.73,21.48,12.37,33.06,8.88,1-.28,2.27-.75,3.26-.22,2.49,2.1,3.68,5.47,6.4,7.45,13.55,9.58,24.18,12.29,31.01,29.58,10.9,29.26,14.63,63.65,.25,92.39-17.74,36.5-66.68,56.52-103.03,35.33-1.6-.86-3.14-1.99-4.8-2.72-1.65-.72-3.37,1.14-2,2.6,4.86,4.32,11.05,7.09,17.17,9.19-.09,10.38,.28,20.75,1.09,31.1-11.03-1.99-32.34-8.39-39.08-17.51-1.92-3.46-1.56-8.1-1.77-11.94-.23-4.29-.46-8.58-.7-12.87-.45-8.09-2.95-15.84-7.32-22.62Zm-3,48.41c2.68-1.35,5.25-2.84,7.76-4.48,.72,14.23,33.67,23.34,45.64,25.07,3.88,.32,1.83-4.67,2.02-6.98,36.52,34.61,55.36,83.04,69.14,130.42-40.32,15.3-80.61,30.72-121.3,45.01-6.67-30.21-12.66-60.68-14.43-91.63,4.15-30.71,5.47-62,2.99-92.91,2.71-1.52,5.44-3.03,8.18-4.5Zm-75.05,48.94c20.05-15.47,41.09-29.69,63.06-42.27,1.27,29.49,.55,59.09-3.31,88.38-.33,.26-.66,.51-.99,.76-13.26,10.06-27.15,20.86-41.55,29.81-12.69-20.2-23.29-41.69-34.31-62.84,5.55-4.8,11.34-9.4,17.09-13.85Zm-46.8,234.58c-1.19-5.69-1.81-11.47-2.15-17.27-.17-3.03-.38-6.23,.98-9.03,1.3-2.66,3.27-4.9,5.26-7.06,1.28-1.4-.67-3.33-2.08-2.08-2.35,2.1-4.78,4.26-6.37,7.02-4.31,9.01-.81,20.37,.31,29.89-3.39,.9-6.78,.95-10.24,.79-2.94-13.18-6.07-29.2,4.46-39.92,1.32-1.34-.66-3.28-2.05-2.05-11.84,10.54-9.8,27.56-6.6,41.63-3.48-.41-6.99-.82-10.33-1.94-4.98-12.23-4.4-26.66,4.2-37.15,1.05-1.41-1.11-2.76-2.29-1.77-9.86,8.8-11.27,23.99-7.33,36.04-3.66-3.02-5.96-8.1-7.47-12.37-5.93-14.92,.67-24.81,13.56-32.44,6.03-3.44,12.78-5.34,19.56-6.7,3.52-.71,7.06-1.27,10.61-1.8,1.16-.17,1.75-1.62,1.49-2.62-5.25-22.01-12.45-44.07-15.58-66.45-5.25-35.63,8.38-71.46,37.92-92.63,8.04,15.45,16.28,30.78,24.62,46.07-19.35,16.41-28.7,36.21-25.22,61.69,1.16,13.51,2,27.07,2.95,40.57,3.64,16.61,25.11,15.12,29.74,35.1,.56,2.72,3.07,11.18,.82,12.88-3.21,1.73-6.44-1.63-7.2-4.59-6.5-14.27-29.56-14.56-39.61-3.91-9.46,9.45,3.62,22.95-11.93,30.1Z" fill="#562629"/></g><g id="change4_9"><path d="M801.86,109.31c-90.04-84.22-233.84-2.28-208.16,117.37,17.06,82.32,111.24,123.78,183.93,82.13,72.01-40.53,84.77-143.01,24.23-199.5Zm28.15,52c4.26,12.72,6.43,26.09,6.42,39.44-5.32,2.31-10.99,3.88-16.75,4.61-1.76,.37-4.02-.08-5.47,1.01-8.29-13.99-17.84-27.61-29.05-39.37-5.13-20.53-11.57-40.81-20.02-60.22,4.61-3.03,9.08-6.31,13.32-9.83,24.23,14.49,42.6,37.61,51.54,64.36Zm-38.56,83.7c-13.3-.69-26.65-2.43-39.5-5.97-4.77-12.33-7.51-25.47-8.19-38.67,12.14-11.42,25.46-21.82,40.27-29.51,9.44,11.99,19.05,24.06,26.31,37.55-4.32,13.02-10.05,26.02-18.89,36.6Zm-47.23,65.58c2.15,1.72,4.33,3.38,6.47,5.11-5.95,1.77-12.03,3.1-18.2,3.95,1.66-4.82,3.31-9.64,4.97-14.46,2.19,1.87,4.52,3.62,6.76,5.4Zm-15.88,9.55c-21.61,2.29-43.82-1.33-63.45-10.36-1.2-7.9-2.4-15.81-3.6-23.71,7.28-7,14.56-13.99,21.83-20.99,12.6,2.71,25.2,5.42,37.8,8.14,4.55,9.6,9.09,19.21,13.64,28.81-2.07,6.04-4.15,12.07-6.22,18.11Zm-7.26-50.84s0,0,0,0c-11.97-2.32-25.16-5.46-37.06-7.88-8.41-16.6-18.13-32.57-26.05-49.41,11.68-6.53,21.52-16,30.16-26.12,16.71,5.91,33.76,10.86,51,14.94,.93,13.25,3.49,26.28,8.1,38.74-7.71,10.75-16.45,20.74-26.16,29.74Zm-93.12-118.69c15.15-5.81,30.96-10.12,47.11-11.77,.11,.22,.25,.41,.44,.56,4.02,14.21,8.18,28.5,9.71,43.23-8.75,10.19-18.77,19.82-30.71,26.09-11.75-5.6-23.18-12.1-33.5-20.06,.22-12.95,2.71-25.84,6.95-38.06Zm147.05-55.68c-4.34,3.55-8.91,6.85-13.65,9.82-13.01-3.67-26.01-7.35-39.02-11.02-2.01-4.71-3.58-9.61-4.8-14.59,20.12,.34,39.95,5.94,57.47,15.79Zm-55.1,1.84c13.56,4.37,27.62,7.9,41.38,11.81,7.88,19.34,14.54,39.2,19.51,59.5-14.98,6.65-27.44,17.99-39.79,28.57-17.42-4.1-34.6-9.14-51.52-14.97-2.07-14.74-5.7-29.29-10.52-43.37,11.89-15.47,25.65-29.43,40.94-41.54Zm-68.46,1.2c18.56-11.83,40.2-18.48,62.23-18.85,1.06,4.69,2.54,9.24,4.22,13.75-15.76,12.18-29.87,26.6-41.86,42.5-8.28-1.14-16.6,1.45-24.64,3.19-8.66,2.22-17.22,4.88-25.6,8-4.08-3.46-7.99-7.15-12.2-10.46,9.63-15.29,22.59-28.42,37.86-38.15Zm-40.07,41.8c3.92,3.52,7.91,6.98,11.86,10.46-4.13,12.44-6.54,25.47-6.79,38.59-7.19,1.79-14.36,3.75-21.4,6.09,1-19.37,6.56-38.48,16.33-55.15Zm-14.23,85.88c-1.01-8.67-2.66-17.52-2.25-26.41,8.04-1.65,15.98-4.73,24.08-6.46,10.64,8.12,22.42,14.76,34.52,20.44,7.86,17.06,17.49,33.25,26.22,49.89-7.02,6.69-13.88,13.47-20.99,20.08-11.62-.31-23.16-1.83-34.51-4.27-13.08-15.27-22.46-33.7-27.08-53.27Zm31.92,58.59c9.43,1.92,19.03,2.87,28.64,3.23,1,6.78,2.07,13.56,3.09,20.34-11.79-5.93-22.6-14.03-31.73-23.57Zm160.88,11.15c-10.28,8.16-21.88,14.41-34.18,18.68-6.11-4.61-11.9-9.71-18.09-14.21-4.14-8.75-9.06-19.14-13.17-27.83,9.49-8.68,17.97-18.38,25.6-28.73,13.6,3.64,27.63,5.41,41.67,6.27,6.33,8.82,12.04,18.19,16.18,28.27-5.4,6.43-11.43,12.34-18.01,17.55Zm21.23-21.55c-4.14-9.44-9.42-18.39-15.8-26.49,8.86-10.97,14.83-24.18,19.1-37.55,1.51,.84,3.69,.19,5.4,.11,5.64-.63,11.18-2.04,16.43-4.18-.87,24.58-10.04,48.71-25.13,68.11Z" fill="#562629"/></g><g id="change4_10"><path d="M307.26,268.77c-2.21-.47-3.02,2.59-.93,3.36,4.68,1.7,8.43,5.03,11.34,9-7.17-1.84-11.54,6.37-10.75,12.62,.79,6.33,6.59,13.28,13.57,10.57,16.3-8.13-.41-32.95-13.23-35.54Z" fill="#562629"/></g><g id="change4_11"><path d="M389,232.09c.05,.38,.19,.72,.4,1,.44,4.04,4.44,8.54,8.63,5.99,4.96-3.76,4.42-19.17-3.02-19.93-6.29,.13-6.6,8.24-6.01,12.94Zm5.8-8.76s0,0,0,0h0s0,0,0,0c0,0,0,0,0,0Z" fill="#562629"/></g><g id="change4_12"><path d="M363.51,227.19c2.77-13.2,11.54-25.2,24.76-29.41,2.18-.74,1.3-4.11-.96-3.48-10.77,2.98-19.66,11.29-24.1,21.47-1.4,3.27-3.07,7.46-2.43,11.07,.22,1.22,2.21,1.5,2.73,.36Z" fill="#562629"/></g><g id="change4_13"><path d="M383.56,274.61c-1.47-1.72-2.58-3.65-3.84-5.52-1.16-1.72-4.5-.67-3.6,1.52,1.64,3.99,4.67,7.56,7.86,10.42,13.65,12.87,37.72,12.7,50.16-1.75,1.37-1.67-.7-3.76-2.37-2.37-13.87,12.71-36,12.65-48.22-2.3Z" fill="#562629"/></g><g id="change4_14"><path d="M437.02,243.59c-2.9-1.24-6.01-2.16-9.17-2.34-1.82-.11-2.26,2.87-.44,3.22,4.4,1.01,10.03,1.73,12.58,5.92,2.07,4.28-1.45,8.8-3.55,12.27-.98,1.61,1.24,3.25,2.57,1.98,6.75-5.84,7.78-17.76-1.99-21.04Z" fill="#562629"/></g><g id="change4_15"><path d="M431.98,231.38c.75,3.72,5.3,6.88,8.82,4.73,4.96-3.76,4.42-19.17-3.02-19.93-4.03-.17-5.92,4.14-6.09,7.59-.23,2.54-.14,5.11,.3,7.61Z" fill="#562629"/></g><g id="change4_16"><path d="M424.19,194.97c11.98-1.92,24.35,3.15,31.52,12.98,1.1,1.42,3.4-.41,2.47-1.91-11.57-19.21-43.01-16.15-33.99-11.08Z" fill="#562629"/></g></svg>