<?xml version="1.0" encoding="UTF-8"?><svg xmlns="http://www.w3.org/2000/svg" xmlns:xlink="http://www.w3.org/1999/xlink" height="800.9" preserveAspectRatio="xMidYMid meet" version="1.0" viewBox="-0.0 -0.1 698.5 800.9" width="698.5" zoomAndPan="magnify"><g><g fill="#002ec4" id="change1_2"><path d="m269.56 621.36v22.501l25.181 10.18v-22.502l-25.181-10.179z" fill="inherit" transform="translate(-1307.482 -2943.869) scale(5.7244)"/></g><g fill="#2da6ff" id="change2_12"><path d="m325.55 644.24v-21.76l-30.939 9.195v22.501l30.939-9.936z" fill="inherit" transform="translate(-1307.482 -2943.869) scale(5.7244)"/></g><g fill="#2da6ff" id="change2_9"><path d="m269.56 621.63 31.192-9.192 24.794 10.042-30.805 9.462-25.181-10.312z" fill="inherit" transform="translate(-1307.482 -2943.869) scale(5.7244)"/></g><g fill="#002ec4" id="change1_12"><path d="m289.92,622.969v4.554c2.41,2.143 10.713,2.01 12.723-.268v-4.688l-12.723.402z" fill="inherit" transform="translate(-1307.482 -2943.869) scale(5.7244)"/></g><g fill="#2da6ff" id="change2_8"><path d="m289.92,622.635c0-.85 2.848-1.54 6.361-1.54s6.362.69 6.362,1.54-2.848,1.54-6.362,1.54-6.361-.689-6.361-1.54z" fill="inherit" transform="translate(-1307.482 -2943.869) scale(5.7244)"/></g><g fill="#002ec4" id="change1_3"><path d="m305.79,618.348v4.554c2.411,2.144 10.714,2.01 12.723-.267v-4.688l-12.723.401z" fill="inherit" transform="translate(-1307.482 -2943.869) scale(5.7244)"/></g><g fill="#2da6ff" id="change2_16"><path d="m305.79,618.015c0-.851 2.848-1.54 6.362-1.54s6.361.689 6.361,1.54-2.848,1.54-6.361,1.54-6.362-.69-6.362-1.54z" fill="inherit" transform="translate(-1307.482 -2943.869) scale(5.7244)"/></g><g fill="#002ec4" id="change1_9"><path d="m292.6 612.79v4.554c2.411 2.143 10.714 2.009 12.723-0.268v-4.688l-12.723 0.402z" fill="inherit" transform="translate(-1307.482 -2943.869) scale(5.7244)"/></g><g fill="#2da6ff" id="change2_10"><path d="m292.601,612.459c0-.85 2.848-1.54 6.362-1.54s6.361.69 6.361,1.54-2.848,1.54-6.361,1.54-6.362-.689-6.362-1.54z" fill="inherit" transform="translate(-1307.482 -2943.869) scale(5.7244)"/></g><g fill="#002ec4" id="change1_13"><path d="m277 617.28v4.554c2.411 2.143 10.714 2.009 12.723-0.268v-4.688l-12.723 0.402z" fill="inherit" transform="translate(-1307.482 -2943.869) scale(5.7244)"/></g><g fill="#2da6ff" id="change2_3"><path d="m277 616.95c0-0.851 2.848-1.54 6.362-1.54s6.361 0.689 6.361 1.54-2.848 1.54-6.361 1.54-6.362-0.689-6.362-1.54z" fill="inherit" transform="translate(-1307.482 -2943.869) scale(5.7244)"/></g><g fill="#fcd327" id="change3_1"><path d="m122.05 480.78v22.502l25.181 10.179v-22.502l-25.181-10.179z" fill="inherit" transform="translate(-610.362 -2361.069) scale(5.7244)"/></g><g fill="#f5fa40" id="change4_8"><path d="m209.51 493.81v-20.929l-62.414 18.217v22.502l62.414-19.79z" fill="inherit" transform="translate(-610.362 -2361.069) scale(5.7244)"/></g><g fill="#f5fa40" id="change4_5"><path d="m122.05 481.05 62.012-18.887 25.315 10.715-62.146 18.485-25.181-10.313z" fill="inherit" transform="translate(-610.362 -2361.069) scale(5.7244)"/></g><g fill="#e9b018" id="change5_8"><path d="m142.407,482.391v4.554c2.411,2.144 10.714,2.01 12.724-.267v-4.689l-12.724.402z" fill="inherit" transform="translate(-610.362 -2361.069) scale(5.7244)"/></g><g fill="#f5fa40" id="change4_6"><path d="m142.407,482.057c0-.85 2.848-1.54 6.362-1.54s6.362.69 6.362,1.54-2.849,1.54-6.362,1.54-6.362-.689-6.362-1.54z" fill="inherit" transform="translate(-610.362 -2361.069) scale(5.7244)"/></g><g fill="#e9b018" id="change5_3"><path d="m158.278,477.77v4.555c2.411,2.143 10.714,2.009 12.723-.268v-4.688l-12.723.401z" fill="inherit" transform="translate(-610.362 -2361.069) scale(5.7244)"/></g><g fill="#f5fa40" id="change4_7"><path d="m158.278,477.437c0-.851 2.848-1.54 6.361-1.54s6.362.689 6.362,1.54-2.848,1.54-6.362,1.54-6.361-.69-6.361-1.54z" fill="inherit" transform="translate(-610.362 -2361.069) scale(5.7244)"/></g><g fill="#e9b018" id="change5_2"><path d="m173.747,473.15v4.554c2.411,2.143 10.714,2.009 12.723-.268v-4.688l-12.723.402z" fill="inherit" transform="translate(-610.362 -2361.069) scale(5.7244)"/></g><g fill="#f5fa40" id="change4_9"><path d="m173.747,472.816c0-.851 2.848-1.54 6.362-1.54s6.361.689 6.361,1.54-2.848,1.54-6.361,1.54-6.362-.689-6.362-1.54z" fill="inherit" transform="translate(-610.362 -2361.069) scale(5.7244)"/></g><g fill="#e9b018" id="change5_4"><path d="m188.681,468.663v4.554c2.411,2.143 10.714,2.009 12.723-.268v-4.688l-12.723.402z" fill="inherit" transform="translate(-610.362 -2361.069) scale(5.7244)"/></g><g fill="#f5fa40" id="change4_2"><path d="m188.681,468.329c0-.85 2.848-1.54 6.361-1.54s6.362.69 6.362,1.54-2.848,1.54-6.362,1.54-6.361-.689-6.361-1.54z" fill="inherit" transform="translate(-610.362 -2361.069) scale(5.7244)"/></g><g fill="#e9b018" id="change5_5"><path d="m176.293,463.239v4.554c2.41,2.144 10.713,2.01 12.723-.267v-4.688l-12.723.401z" fill="inherit" transform="translate(-610.362 -2361.069) scale(5.7244)"/></g><g fill="#f5fa40" id="change4_4"><path d="m176.293,462.906c0-.851 2.848-1.54 6.361-1.54s6.362.689 6.362,1.54-2.848,1.54-6.362,1.54-6.361-.69-6.361-1.54z" fill="inherit" transform="translate(-610.362 -2361.069) scale(5.7244)"/></g><g fill="#e9b018" id="change5_6"><path d="m160.691,467.727v4.554c2.41,2.144 10.714,2.01 12.723-.267v-4.689l-12.723.402z" fill="inherit" transform="translate(-610.362 -2361.069) scale(5.7244)"/></g><g fill="#f5fa40" id="change4_10"><path d="m160.691,467.393c0-.85 2.848-1.54 6.361-1.54s6.362.69 6.362,1.54-2.848,1.54-6.362,1.54-6.361-.689-6.361-1.54z" fill="inherit" transform="translate(-610.362 -2361.069) scale(5.7244)"/></g><g fill="#e9b018" id="change5_1"><path d="m145.089,472.215v4.554c2.411,2.143 10.714,2.01 12.723-.268v-4.688l-12.723.402z" fill="inherit" transform="translate(-610.362 -2361.069) scale(5.7244)"/></g><g fill="#f5fa40" id="change4_3"><path d="m145.089,471.881c0-.85 2.848-1.54 6.361-1.54s6.362.69 6.362,1.54-2.848,1.54-6.362,1.54-6.361-.689-6.361-1.54z" fill="inherit" transform="translate(-610.362 -2361.069) scale(5.7244)"/></g><g fill="#e9b018" id="change5_7"><path d="m129.49 476.7v4.554c2.411 2.143 10.714 2.009 12.723-0.268v-4.688l-12.723 0.402z" fill="inherit" transform="translate(-610.362 -2361.069) scale(5.7244)"/></g><g fill="#f5fa40" id="change4_1"><path d="m129.487,476.369c0-.85 2.848-1.54 6.361-1.54s6.362.69 6.362,1.54-2.848,1.54-6.362,1.54-6.361-.689-6.361-1.54z" fill="inherit" transform="translate(-610.362 -2361.069) scale(5.7244)"/></g><g fill="#c00104" id="change6_5"><path d="m141.19 453.29v22.501l25.181 10.18v-22.502l-25.181-10.179z" fill="inherit" transform="translate(-610.362 -2361.069) scale(5.7244)"/></g><g fill="#ff212c" id="change7_3"><path d="m228.65 466.31v-20.929l-62.414 18.217v22.501l62.414-19.789z" fill="inherit" transform="translate(-610.362 -2361.069) scale(5.7244)"/></g><g fill="#ff212c" id="change7_5"><path d="m141.19 453.55 62.013-18.886 25.314 10.715-62.146 18.484-25.181-10.313z" fill="inherit" transform="translate(-610.362 -2361.069) scale(5.7244)"/></g><g fill="#c00104" id="change6_3"><path d="m161.547,454.892v4.554c2.41,2.143 10.713,2.01 12.723-.268v-4.688l-12.723.402z" fill="inherit" transform="translate(-610.362 -2361.069) scale(5.7244)"/></g><g fill="#ff212c" id="change7_1"><path d="m161.547,454.558c0-.85 2.848-1.54 6.361-1.54s6.362.69 6.362,1.54-2.848,1.54-6.362,1.54-6.361-.689-6.361-1.54z" fill="inherit" transform="translate(-610.362 -2361.069) scale(5.7244)"/></g><g fill="#c00104" id="change6_2"><path d="m177.417,450.271v4.554c2.411,2.144 10.714,2.01 12.723-.267v-4.688l-12.723.401z" fill="inherit" transform="translate(-610.362 -2361.069) scale(5.7244)"/></g><g fill="#ff212c" id="change7_8"><path d="m177.417,449.938c0-.851 2.848-1.54 6.362-1.54s6.361.689 6.361,1.54-2.848,1.54-6.361,1.54-6.362-.69-6.362-1.54z" fill="inherit" transform="translate(-610.362 -2361.069) scale(5.7244)"/></g><g fill="#c00104" id="change6_4"><path d="m192.886,445.65v4.555c2.411,2.143 10.714,2.009 12.723-.268v-4.688l-12.723.401z" fill="inherit" transform="translate(-610.362 -2361.069) scale(5.7244)"/></g><g fill="#ff212c" id="change7_4"><path d="m192.886,445.317c0-.851 2.848-1.54 6.362-1.54s6.361.689 6.361,1.54-2.848,1.54-6.361,1.54-6.362-.69-6.362-1.54z" fill="inherit" transform="translate(-610.362 -2361.069) scale(5.7244)"/></g><g fill="#c00104" id="change6_6"><path d="m207.82,441.164v4.554c2.411,2.143 10.714,2.009 12.723-.268v-4.688l-12.723.402z" fill="inherit" transform="translate(-610.362 -2361.069) scale(5.7244)"/></g><g fill="#ff212c" id="change7_6"><path d="m207.82,440.83c0-.85 2.848-1.54 6.362-1.54s6.361.69 6.361,1.54-2.848,1.54-6.361,1.54-6.362-.689-6.362-1.54z" fill="inherit" transform="translate(-610.362 -2361.069) scale(5.7244)"/></g><g fill="#c00104" id="change6_7"><path d="m195.432,435.74v4.554c2.411,2.144 10.714,2.01 12.723-.267v-4.689l-12.723.402z" fill="inherit" transform="translate(-610.362 -2361.069) scale(5.7244)"/></g><g fill="#ff212c" id="change7_2"><path d="m195.432,435.406c0-.85 2.848-1.54 6.361-1.54s6.362.69 6.362,1.54-2.848,1.54-6.362,1.54-6.361-.689-6.361-1.54z" fill="inherit" transform="translate(-610.362 -2361.069) scale(5.7244)"/></g><g fill="#c00104" id="change6_8"><path d="m179.83,440.228v4.554c2.411,2.143 10.714,2.01 12.723-.268v-4.688l-12.723.402z" fill="inherit" transform="translate(-610.362 -2361.069) scale(5.7244)"/></g><g fill="#ff212c" id="change7_9"><path d="m179.83,439.894c0-.85 2.848-1.54 6.361-1.54s6.362.69 6.362,1.54-2.848,1.54-6.362,1.54-6.361-.689-6.361-1.54z" fill="inherit" transform="translate(-610.362 -2361.069) scale(5.7244)"/></g><g fill="#c00104" id="change6_1"><path d="m164.228,444.716v4.554c2.411,2.143 10.714,2.009 12.723-.268v-4.688l-12.723.402z" fill="inherit" transform="translate(-610.362 -2361.069) scale(5.7244)"/></g><g fill="#ff212c" id="change7_7"><path d="m164.228,444.382c0-.85 2.848-1.54 6.362-1.54s6.361.69 6.361,1.54-2.848,1.54-6.361,1.54-6.362-.689-6.362-1.54z" fill="inherit" transform="translate(-610.362 -2361.069) scale(5.7244)"/></g><g fill="#c00104" id="change6_9"><path d="m148.63 449.2v4.554c2.411 2.143 10.714 2.009 12.723-0.268v-4.688l-12.723 0.402z" fill="inherit" transform="translate(-610.362 -2361.069) scale(5.7244)"/></g><g fill="#ff212c" id="change7_10"><path d="m148.626,448.87c0-.851 2.848-1.54 6.362-1.54s6.361.689 6.361,1.54-2.848,1.54-6.361,1.54-6.362-.689-6.362-1.54z" fill="inherit" transform="translate(-610.362 -2361.069) scale(5.7244)"/></g><g fill="#002ec4" id="change1_1"><path d="m106.62 431.87v22.501l25.181 10.179v-22.501l-25.181-10.179z" fill="inherit" transform="translate(-610.362 -2361.069) scale(5.7244)"/></g><g fill="#2da6ff" id="change2_5"><path d="m194.08 444.89v-20.929l-62.414 18.217v22.501l62.414-19.789z" fill="inherit" transform="translate(-610.362 -2361.069) scale(5.7244)"/></g><g fill="#2da6ff" id="change2_2"><path d="m106.62 432.14 62.012-18.886 25.315 10.715-62.146 18.484-25.181-10.313z" fill="inherit" transform="translate(-610.362 -2361.069) scale(5.7244)"/></g><g fill="#002ec4" id="change1_4"><path d="m126.983,433.474v4.554c2.411,2.143 10.714,2.009 12.723-.268v-4.688l-12.723.402z" fill="inherit" transform="translate(-610.362 -2361.069) scale(5.7244)"/></g><g fill="#2da6ff" id="change2_6"><path d="m126.983,433.14c0-.85 2.848-1.54 6.362-1.54s6.361.69 6.361,1.54-2.848,1.54-6.361,1.54-6.362-.689-6.362-1.54z" fill="inherit" transform="translate(-610.362 -2361.069) scale(5.7244)"/></g><g fill="#002ec4" id="change1_10"><path d="m142.854,428.853v4.554c2.41,2.144 10.713,2.01 12.723-.267v-4.688l-12.723.401z" fill="inherit" transform="translate(-610.362 -2361.069) scale(5.7244)"/></g><g fill="#2da6ff" id="change2_13"><path d="m142.854,428.519c0-.85 2.848-1.54 6.361-1.54s6.362.69 6.362,1.54-2.848,1.541-6.362,1.541-6.361-.69-6.361-1.541z" fill="inherit" transform="translate(-610.362 -2361.069) scale(5.7244)"/></g><g fill="#002ec4" id="change1_5"><path d="m158.323,424.232v4.555c2.411,2.143 10.714,2.009 12.723-.268v-4.688l-12.723.401z" fill="inherit" transform="translate(-610.362 -2361.069) scale(5.7244)"/></g><g fill="#2da6ff" id="change2_4"><path d="m158.323,423.899c0-.851 2.848-1.54 6.361-1.54s6.362.689 6.362,1.54-2.848,1.54-6.362,1.54-6.361-.69-6.361-1.54z" fill="inherit" transform="translate(-610.362 -2361.069) scale(5.7244)"/></g><g fill="#002ec4" id="change1_14"><path d="m173.257,419.746v4.554c2.41,2.143 10.713,2.009 12.723-.268v-4.688l-12.723.402z" fill="inherit" transform="translate(-610.362 -2361.069) scale(5.7244)"/></g><g fill="#2da6ff" id="change2_7"><path d="m173.257,419.412c0-.851 2.848-1.54 6.361-1.54s6.362.689 6.362,1.54-2.848,1.54-6.362,1.54-6.361-.689-6.361-1.54z" fill="inherit" transform="translate(-610.362 -2361.069) scale(5.7244)"/></g><g fill="#002ec4" id="change1_7"><path d="m160.868,414.322v4.554c2.411,2.143 10.714,2.01 12.724-.268v-4.688l-12.724.402z" fill="inherit" transform="translate(-610.362 -2361.069) scale(5.7244)"/></g><g fill="#2da6ff" id="change2_11"><path d="m160.868,413.988c0-.85 2.849-1.54 6.362-1.54s6.362.69 6.362,1.54-2.848,1.54-6.362,1.54-6.362-.689-6.362-1.54z" fill="inherit" transform="translate(-610.362 -2361.069) scale(5.7244)"/></g><g fill="#002ec4" id="change1_8"><path d="m145.267,418.81v4.554c2.41,2.143 10.713,2.009 12.723-.268v-4.688l-12.723.402z" fill="inherit" transform="translate(-610.362 -2361.069) scale(5.7244)"/></g><g fill="#2da6ff" id="change2_1"><path d="m145.267,418.476c0-.85 2.848-1.54 6.361-1.54s6.362.69 6.362,1.54-2.848,1.54-6.362,1.54-6.361-.689-6.361-1.54z" fill="inherit" transform="translate(-610.362 -2361.069) scale(5.7244)"/></g><g fill="#002ec4" id="change1_11"><path d="m129.66 423.3v4.554c2.41 2.143 10.713 2.009 12.723-0.268v-4.688l-12.723 0.402z" fill="inherit" transform="translate(-610.362 -2361.069) scale(5.7244)"/></g><g fill="#2da6ff" id="change2_15"><path d="m129.665,422.964c0-.851 2.848-1.54 6.361-1.54s6.362.689 6.362,1.54-2.848,1.54-6.362,1.54-6.361-.689-6.361-1.54z" fill="inherit" transform="translate(-610.362 -2361.069) scale(5.7244)"/></g><g fill="#002ec4" id="change1_6"><path d="m114.063,427.785v4.555c2.411,2.143 10.713,2.009 12.723-.268v-4.688l-12.723.401z" fill="inherit" transform="translate(-610.362 -2361.069) scale(5.7244)"/></g><g fill="#2da6ff" id="change2_14"><path d="m114.063,427.452c0-.851 2.848-1.54 6.361-1.54s6.362.689 6.362,1.54-2.848,1.54-6.362,1.54-6.361-.69-6.361-1.54z" fill="inherit" transform="translate(-610.362 -2361.069) scale(5.7244)"/></g></g></svg>