<?xml version="1.0" encoding="UTF-8"?><svg xmlns="http://www.w3.org/2000/svg" xmlns:xlink="http://www.w3.org/1999/xlink" height="443.5" preserveAspectRatio="xMidYMid meet" version="1.0" viewBox="-0.5 0.0 717.7 443.5" width="717.7" zoomAndPan="magnify"><g><g><g id="change1_1"><path d="M210.25,281.94l52.24-12.45c9.69-2.31,19.35,3.92,21.25,13.7l7.82,40.3c0,0,12.14-40.13,28.46-33.76 c14.27,5.57,5.32,63.02-22.32,75.93c-7.76,3.63-17.03,0.35-21.22-7.13c-9.85-17.6-13.57-49.9-15.1-60.79 c-0.22-1.59-1.77-2.65-3.34-2.29l-44.9,10.3L210.25,281.94z" fill="#723B94"/></g><g id="change2_1"><path d="M291.03,369.13c-6.51,0-12.88-3.52-16.3-9.63c-9.23-16.49-13.07-44.81-14.92-58.42c-0.16-1.15-0.29-2.18-0.42-3.06 c-0.04-0.28-0.21-0.44-0.31-0.51c-0.1-0.07-0.31-0.18-0.6-0.11l-44.9,10.3c-0.55,0.13-1.13,0.01-1.6-0.31 c-0.46-0.33-0.77-0.83-0.84-1.4l-2.89-23.81c-0.12-1.01,0.53-1.95,1.52-2.19l52.24-12.45c5.22-1.24,10.58-0.33,15.09,2.58 s7.56,7.41,8.58,12.68l6.41,33.06c3.41-8.81,10.14-23.22,18.98-27.52c3.21-1.56,6.46-1.72,9.64-0.48 c4.82,1.88,7.65,8.24,7.96,17.92c0.64,19.66-9.49,52.03-30.16,61.69C296.13,368.6,293.57,369.13,291.03,369.13z M258.65,293.38 c0.96,0,1.9,0.29,2.7,0.84c1.09,0.75,1.82,1.93,2.01,3.24c0.13,0.89,0.27,1.93,0.42,3.08c1.67,12.32,5.58,41.18,14.44,57 c3.73,6.67,11.91,9.43,18.62,6.29c18.86-8.81,28.44-39.85,27.85-57.93c-0.25-7.74-2.28-13.09-5.42-14.32 c-2.13-0.83-4.24-0.72-6.44,0.35c-4.54,2.2-9.31,8.41-13.81,17.93c-3.49,7.38-5.54,14.12-5.56,14.19 c-0.27,0.88-1.11,1.47-2.02,1.42c-0.92-0.05-1.69-0.71-1.86-1.62l-7.82-40.3c-0.81-4.19-3.24-7.77-6.82-10.08s-7.85-3.04-12-2.05 l-50.51,12.04l2.4,19.83l42.74-9.8C257.94,293.42,258.3,293.38,258.65,293.38z" fill="inherit"/></g></g><g><g id="change3_1"><path d="M518.39,205.6L472,178.54c-8.6-5.02-19.65-1.86-24.3,6.95l-19.17,36.3c0,0,0.02-41.93-17.44-40.56 c-15.28,1.19-23.37,58.77-0.66,79.14c6.38,5.72,16.2,5.27,22.37-0.67c14.53-13.98,27.46-43.82,32.08-53.79 c0.68-1.46,2.46-2.02,3.86-1.22l39.99,22.88L518.39,205.6z" fill="#F15F24"/></g><g id="change2_2"><path d="M421.12,266.4c-4.34,0-8.64-1.51-12.04-4.55c-16.98-15.23-17.28-49.15-10.97-67.78c3.1-9.17,7.66-14.44,12.81-14.84 c3.41-0.26,6.47,0.83,9.09,3.26c7.21,6.68,9.48,22.42,10.19,31.84l15.72-29.78c2.51-4.75,6.73-8.17,11.89-9.65 c5.16-1.48,10.55-0.8,15.19,1.91l46.39,27.07c0.88,0.51,1.23,1.6,0.82,2.53l-9.67,21.95c-0.23,0.52-0.67,0.92-1.2,1.09 c-0.54,0.18-1.13,0.12-1.62-0.16l-39.99-22.88c-0.25-0.14-0.49-0.1-0.6-0.06s-0.33,0.14-0.45,0.39c-0.38,0.81-0.81,1.76-1.29,2.82 c-5.71,12.49-17.6,38.47-31.22,51.58C430.54,264.64,425.81,266.4,421.12,266.4z M411.91,183.19c-0.22,0-0.44,0.01-0.67,0.03 c-3.36,0.26-6.85,4.8-9.34,12.13c-5.81,17.14-5.64,49.62,9.85,63.52c5.51,4.95,14.14,4.67,19.65-0.62 c13.07-12.58,25.18-39.05,30.35-50.36c0.49-1.07,0.92-2.02,1.3-2.83c0.56-1.2,1.6-2.12,2.86-2.52c1.26-0.4,2.65-0.26,3.8,0.4 l38.06,21.78l8.05-18.28l-44.85-26.17c-3.68-2.15-7.97-2.69-12.08-1.52c-4.1,1.17-7.46,3.9-9.45,7.67l-19.17,36.3 c-0.43,0.81-1.35,1.22-2.25,1.01c-0.89-0.22-1.52-1.02-1.52-1.94c0-0.28-0.1-27.93-9.23-36.37 C415.68,183.92,413.91,183.19,411.91,183.19z" fill="inherit"/></g></g><g><g id="change3_2"><path d="M498.89,98.59c0,0-26.54-10.15-38.58-52.22c-1.97-6.87-9.15-10.84-16.02-8.84l0,0 c-6.84,2-10.78,9.16-8.77,16c6.21,21.1,21.45,62.92,47.78,77.03" fill="#F15F24"/></g><g id="change2_4"><path d="M483.31,132.57c-0.32,0-0.64-0.08-0.94-0.24c-11.41-6.12-32.91-24.41-48.76-78.23c-1.12-3.81-0.69-7.83,1.22-11.32 c1.91-3.5,5.08-6.05,8.91-7.16c3.83-1.12,7.87-0.67,11.37,1.26c3.5,1.93,6.03,5.11,7.13,8.95c11.58,40.49,37.12,50.8,37.37,50.9 c1.03,0.4,1.54,1.56,1.15,2.58c-0.4,1.03-1.55,1.55-2.58,1.15c-1.12-0.43-27.62-10.99-39.79-53.54c-0.8-2.81-2.66-5.14-5.22-6.55 c-2.56-1.41-5.51-1.74-8.32-0.92s-5.12,2.68-6.52,5.24c-1.39,2.55-1.71,5.49-0.89,8.27c15.43,52.42,35.95,70.01,46.81,75.83 c0.97,0.52,1.34,1.73,0.82,2.71C484.72,132.18,484.03,132.57,483.31,132.57z" fill="inherit"/></g></g><g><g id="change1_2"><path d="M192.34,190.95c0,0,26.54-10.15,38.58-52.22c1.97-6.87,9.15-10.84,16.02-8.84l0,0 c6.84,2,10.78,9.16,8.77,16c-6.21,21.1-21.45,62.92-47.78,77.03" fill="#723B94"/></g><g id="change2_5"><path d="M207.92,224.92c-0.71,0-1.4-0.38-1.76-1.05c-0.52-0.97-0.16-2.19,0.82-2.71c10.86-5.82,31.38-23.41,46.81-75.83 c0.82-2.78,0.5-5.72-0.89-8.27c-1.4-2.56-3.72-4.42-6.52-5.24c-2.8-0.82-5.76-0.49-8.31,0.92c-2.56,1.41-4.41,3.74-5.22,6.55 c-12.17,42.54-38.66,53.11-39.79,53.54c-1.03,0.39-2.19-0.12-2.58-1.15c-0.39-1.03,0.12-2.19,1.15-2.58 c0.32-0.13,25.81-10.46,37.37-50.9c1.1-3.84,3.63-7.02,7.13-8.95c3.5-1.93,7.54-2.38,11.37-1.26c3.83,1.12,7,3.66,8.91,7.16 c1.91,3.49,2.34,7.51,1.22,11.32c-15.84,53.82-37.35,72.11-48.76,78.23C208.56,224.85,208.24,224.92,207.92,224.92z" fill="inherit"/></g></g></g><g><g><g id="change4_1"><path d="M681.64,223.62l-575.49,160.9c-4.94,1.38-10.06-1.5-11.44-6.44l0,0c-1.38-4.94,1.5-10.06,6.44-11.44 l575.49-160.9c4.94-1.38,10.06,1.5,11.44,6.44v0C689.46,217.12,686.57,222.24,681.64,223.62z" fill="#D9196A"/></g><g id="change2_14"><path d="M103.65,386.87c-4.94,0-9.48-3.27-10.87-8.25c-1.68-5.99,1.84-12.23,7.83-13.91l575.49-160.9 c5.99-1.67,12.23,1.84,13.91,7.83c1.68,5.99-1.84,12.23-7.83,13.91c0,0,0,0,0,0l-575.49,160.9 C105.67,386.73,104.65,386.87,103.65,386.87z M679.13,207.4c-0.65,0-1.3,0.09-1.96,0.27l-575.49,160.9 c-3.87,1.08-6.14,5.11-5.05,8.98c1.08,3.87,5.11,6.13,8.98,5.05L681.1,221.7c3.87-1.08,6.13-5.11,5.05-8.98 C685.25,209.51,682.32,207.4,679.13,207.4z M681.64,223.62L681.64,223.62L681.64,223.62z" fill="inherit"/></g></g></g><g><g><g id="change1_4"><path d="M281.69,383.66c9.07,14.42-36.95,59.82-70.18,53.07c-9.34-1.9-15.45-10.95-14.24-20.41 c2.85-22.24,20.9-53.56,26.73-64.3c0.85-1.57,0.17-3.54-1.47-4.25l-20.96-9.15c-5.33,2.65-11,4.82-16.97,6.45 c-48.72,13.26-99.51-15.38-113.39-63.92c-6.94-24.25-3.54-48.97,7.55-69.5c3.88-7.18,4.92-15.57,2.58-23.38 c-0.11-0.36-0.21-0.72-0.31-1.09c-8.83-31.59,10.31-64.39,42.56-71.97c30.18-7.11,60.87,11.18,69.06,41.09 c0.05,0.17,0.1,0.36,0.14,0.53c2.1,7.91,7.17,14.68,14.24,18.81c20.05,11.7,35.76,30.92,42.5,55.06 c9.21,32.94-0.59,66.68-22.82,89.56l16.98,7.25c10.19,4.35,14.7,16.3,9.93,26.3l-19.68,41.17 C234.67,394.44,271.43,367.34,281.69,383.66z" fill="#723B94"/></g><g id="change2_18"><path d="M218.53,439.42c-2.52,0-5-0.23-7.42-0.73c-10.23-2.08-17.18-12.02-15.83-22.62c2.66-20.78,17.95-48.59,25.29-61.96 c0.63-1.14,1.19-2.16,1.67-3.04c0.19-0.35,0.12-0.68,0.07-0.84c-0.06-0.16-0.21-0.46-0.58-0.62l-20.11-8.79 c-5.24,2.54-10.78,4.62-16.49,6.17c-8.21,2.23-16.48,3.3-24.63,3.3c-41.21,0-79.38-27.24-91.21-68.6c-6.84-23.9-4.1-49.12,7.71-71 c3.72-6.89,4.58-14.65,2.42-21.85c-0.11-0.35-0.21-0.72-0.31-1.09c-4.45-15.9-2.27-32.45,6.11-46.64 c8.38-14.18,21.84-24.07,37.91-27.85c15.1-3.56,30.82-1.11,44.26,6.89c13.43,8,23.09,20.65,27.19,35.62 c0.06,0.21,0.12,0.42,0.16,0.63c1.97,7.42,6.7,13.66,13.3,17.52c21.34,12.46,36.76,32.43,43.42,56.25 c8.78,31.4,0.61,65.37-21.32,89.38l14.34,6.12c5.43,2.32,9.58,6.64,11.66,12.17c2.09,5.53,1.83,11.5-0.71,16.83l-16.49,34.5 c2.6-1.66,5.82-3.6,9.33-5.46c11.09-5.85,19.98-8.2,26.41-6.96c3.81,0.73,6.74,2.69,8.72,5.84c3.01,4.79,1.33,12.25-4.73,21.02 C267.46,419.79,241.66,439.41,218.53,439.42z M201.57,336.61c0.27,0,0.54,0.06,0.8,0.17l20.96,9.16c1.29,0.56,2.3,1.65,2.76,2.99 c0.46,1.33,0.34,2.81-0.33,4.05c-0.48,0.89-1.05,1.92-1.68,3.06c-6.66,12.12-22.26,40.51-24.83,60.54 c-1.09,8.54,4.47,16.53,12.66,18.2c2.14,0.43,4.34,0.64,6.57,0.64c21.54,0,46.49-19.03,56.89-34.07 c4.95-7.15,6.68-13.36,4.63-16.61c0,0,0,0,0,0c-1.38-2.2-3.37-3.52-6.08-4.04c-10.66-2.04-29.38,9.02-38.77,15.88 c-0.74,0.54-1.77,0.52-2.47-0.06c-0.71-0.58-0.94-1.56-0.54-2.39l19.68-41.17c2.07-4.34,2.28-9.2,0.58-13.7 c-1.7-4.5-5.07-8.01-9.49-9.9l-16.98-7.25c-0.61-0.26-1.05-0.8-1.18-1.45c-0.13-0.65,0.07-1.31,0.53-1.79 c22.43-23.08,30.98-56.66,22.33-87.63c-6.38-22.81-21.15-41.94-41.59-53.87c-7.52-4.39-12.91-11.5-15.17-20.02 c-0.05-0.22-0.09-0.36-0.13-0.5c-3.83-13.99-12.84-25.79-25.38-33.26c-12.54-7.47-27.21-9.75-41.29-6.44 c-15,3.53-27.57,12.76-35.39,25.99c-7.82,13.24-9.85,28.69-5.71,43.5c0.1,0.37,0.2,0.7,0.3,1.04c2.47,8.25,1.5,17.09-2.73,24.92 c-11.31,20.95-13.93,45.1-7.38,68c13.57,47.44,63.34,75.5,110.94,62.54c5.77-1.57,11.36-3.7,16.6-6.31 C200.96,336.68,201.26,336.61,201.57,336.61z" fill="inherit"/></g></g><g><g id="change3_4"><path d="M464.79,299.48c-5.53,16.11,49.64,49.79,80.45,35.62c8.65-3.98,12.54-14.2,9.2-23.12 c-7.85-21-32.59-47.36-40.72-56.49c-1.19-1.33-0.98-3.4,0.46-4.47l18.31-13.7c5.8,1.36,11.81,2.18,18,2.4 c50.46,1.77,93.36-37.72,95.78-88.14c1.21-25.19-7.75-48.48-23.23-65.93c-5.42-6.1-8.35-14.03-7.85-22.17 c0.03-0.38,0.04-0.75,0.06-1.13C616.62,29.57,590.49,2.01,557.36,2c-31.01-0.02-56.7,24.8-57.84,55.79 c-0.01,0.18-0.02,0.37-0.01,0.55c-0.23,8.18-3.62,15.93-9.57,21.57c-16.85,15.98-27.74,38.28-28.8,63.32 c-1.44,34.17,15.81,64.78,42.68,81.98l-14.87,10.93c-8.92,6.56-10.59,19.23-3.65,27.87l28.57,35.58 C513.02,299.23,471.04,281.25,464.79,299.48z" fill="#F15F24"/></g><g id="change2_21"><path d="M528.12,340.52c-20.44,0-43.49-11.16-55.82-22.31c-7.9-7.15-11.25-14.03-9.41-19.38c1.2-3.51,3.61-6.09,7.15-7.67 c5.98-2.67,15.15-2.43,27.27,0.73c3.86,1,7.45,2.16,10.37,3.19l-23.94-29.82c-3.7-4.61-5.31-10.37-4.54-16.22 c0.77-5.86,3.81-11.01,8.57-14.51l12.56-9.24c-26.84-18.36-42.56-49.57-41.19-82.15c1.04-24.71,11.49-47.68,29.42-64.68 c5.54-5.26,8.72-12.42,8.94-20.17c0-0.1,0-0.31,0.01-0.51c0.57-15.57,7.08-30.09,18.33-40.95C527.09,5.97,541.82,0,557.31,0 c0.02,0,0.03,0,0.05,0c16.51,0.01,31.88,6.56,43.27,18.45c11.4,11.9,17.3,27.51,16.61,43.98c-0.02,0.44-0.04,0.8-0.06,1.18 c-0.45,7.5,2.16,14.85,7.36,20.71c16.5,18.6,24.92,42.52,23.73,67.36c-2.47,51.46-46.4,91.86-97.85,90.04 c-5.92-0.21-11.79-0.96-17.47-2.24l-17.57,13.15c-0.33,0.24-0.4,0.57-0.42,0.74c-0.02,0.17-0.01,0.5,0.26,0.8 c0.67,0.75,1.45,1.62,2.32,2.58c10.2,11.33,31.44,34.91,38.78,54.54c3.75,10.02-0.75,21.28-10.24,25.64 C540.62,339.43,534.5,340.52,528.12,340.52z M480.18,293.33c-3.26,0-6.18,0.44-8.51,1.47c-2.52,1.13-4.15,2.87-5,5.32c0,0,0,0,0,0 c-1.25,3.63,1.86,9.28,8.31,15.12c23.58,21.33,56.01,24.21,69.42,18.04c7.59-3.49,11.18-12.54,8.16-20.61 c-7.08-18.91-28.75-42.98-38.01-53.26c-0.88-0.98-1.66-1.85-2.33-2.6c-0.94-1.05-1.39-2.46-1.25-3.87 c0.14-1.41,0.88-2.7,2.01-3.54l18.31-13.7c0.47-0.35,1.08-0.48,1.66-0.35c5.71,1.34,11.64,2.13,17.61,2.35 c1.06,0.04,2.13,0.06,3.18,0.06c47.92,0,88.21-38.07,90.53-86.29c1.14-23.79-6.93-46.7-22.73-64.51 c-5.91-6.65-8.88-15.04-8.35-23.62c0.02-0.36,0.04-0.69,0.05-1.03c0.65-15.42-4.86-29.99-15.5-41.1 C587.11,10.12,572.77,4.01,557.36,4c-0.01,0-0.03,0-0.04,0c-14.46,0-28.19,5.58-38.69,15.7c-10.5,10.13-16.58,23.69-17.11,38.16 c-0.01,0.19-0.01,0.32-0.01,0.44c-0.25,8.91-3.87,17.06-10.19,23.05c-17.17,16.29-27.18,38.29-28.17,61.95 c-1.35,32.13,14.65,62.86,41.76,80.21c0.55,0.36,0.9,0.96,0.92,1.62c0.02,0.66-0.28,1.29-0.81,1.68l-14.87,10.93 c-3.87,2.85-6.35,7.04-6.98,11.81c-0.62,4.76,0.69,9.45,3.7,13.2l28.57,35.58c0.57,0.71,0.59,1.72,0.04,2.46 c-0.55,0.73-1.53,0.99-2.37,0.64C504.87,297.95,490.78,293.33,480.18,293.33z M464.79,299.48L464.79,299.48L464.79,299.48z" fill="inherit"/></g></g><g><g id="change4_2"><path d="M391.39 308.94L437.29 437.41 345.49 437.41z" fill="#D9196A"/></g><g id="change2_15"><path d="M440.13,439.41h-97.47l48.74-136.42L440.13,439.41z M348.33,435.41h86.12l-43.06-120.53L348.33,435.41z" fill="inherit"/></g></g><g><g id="change1_3"><path d="M114.01,220.28c0,0-49.83,16.13-82.38-26.57c-5.48-7.19-15.65-8.79-22.94-3.43l0,0 c-7.7,5.67-8.93,16.66-2.74,23.95c17.43,20.48,56.05,53.9,112.04,35.36" fill="#723B94"/></g><g id="change2_6"><path d="M85.71,257.03c-39.13,0-66.77-24.45-81.28-41.5c-3.32-3.91-4.89-9.07-4.3-14.15c0.6-5.13,3.22-9.64,7.38-12.71 c8.19-6.03,19.48-4.35,25.71,3.82c13.11,17.19,30.54,26.78,51.81,28.5c15.97,1.29,28.24-2.58,28.36-2.62 c1.05-0.34,2.18,0.24,2.52,1.29c0.34,1.05-0.24,2.18-1.29,2.52c-0.52,0.17-13.03,4.14-29.76,2.82 c-15.49-1.22-37.57-7.43-54.83-30.08c-4.89-6.42-13.75-7.75-20.16-3.03c-3.26,2.4-5.31,5.93-5.77,9.95 c-0.47,4.04,0.73,7.98,3.38,11.09c17.64,20.73,55.37,52.81,109.89,34.75c1.05-0.35,2.18,0.22,2.53,1.27 c0.35,1.05-0.22,2.18-1.27,2.53C106.89,255.37,95.91,257.03,85.71,257.03z" fill="inherit"/></g></g><g><g id="change3_3"><path d="M583.43,103.76c0,0,51.56,9.2,78.01-37.52c4.46-7.87,14.31-10.83,22.26-6.51v0 c8.4,4.57,11.12,15.29,5.97,23.35c-14.48,22.66-48.2,61.02-106.19,50.26" fill="#F15F24"/></g><g id="change2_17"><path d="M603.25,137.22c-6.37,0-13.08-0.6-20.15-1.91c-1.09-0.2-1.8-1.25-1.6-2.33c0.2-1.09,1.24-1.81,2.33-1.6 c56.47,10.48,89.49-26.44,104.14-49.37c2.2-3.44,2.85-7.51,1.84-11.45c-1.01-3.91-3.52-7.13-7.07-9.07 c-7-3.8-15.59-1.28-19.56,5.74c-14.02,24.78-35.06,33.94-50.23,37.25c-16.39,3.58-29.32,1.35-29.87,1.25 c-1.09-0.19-1.81-1.23-1.62-2.32c0.19-1.09,1.24-1.82,2.32-1.62c0.13,0.02,12.81,2.19,28.46-1.26 c20.84-4.6,36.81-16.47,47.46-35.28c5.06-8.94,16.02-12.14,24.95-7.28c4.54,2.47,7.75,6.58,9.04,11.58 c1.28,4.96,0.42,10.28-2.34,14.6C677.98,105.08,649.84,137.21,603.25,137.22z" fill="inherit"/></g></g><g id="change2_8"><path d="M681.23,375.45c-0.38,0-0.76-0.11-1.1-0.33c-0.92-0.61-1.18-1.85-0.57-2.77l6.39-9.71 c21.42-32.54,27.15-72.56,15.72-109.8l-3.41-11.11c-0.32-1.06,0.27-2.17,1.33-2.5c1.06-0.32,2.17,0.27,2.5,1.33l3.41,11.11 c11.78,38.39,5.88,79.64-16.21,113.17l-6.39,9.71C682.52,375.13,681.88,375.45,681.23,375.45z" fill="inherit"/></g><g id="change2_20"><path d="M666.2,361.38c-0.38,0-0.76-0.11-1.1-0.33c-0.92-0.61-1.18-1.85-0.57-2.77l4.94-7.5c16.48-25.03,20.88-55.8,12.09-84.45 l-2.63-8.58c-0.32-1.06,0.27-2.17,1.33-2.5c1.06-0.32,2.17,0.27,2.5,1.33l2.63,8.58c9.14,29.79,4.56,61.8-12.58,87.82l-4.94,7.5 C667.48,361.06,666.85,361.38,666.2,361.38z" fill="inherit"/></g><g id="change2_16"><path d="M655.26,338.67c-0.38,0-0.76-0.11-1.1-0.33c-0.92-0.61-1.18-1.85-0.57-2.77l2.94-4.46c9.66-14.68,12.25-32.73,7.09-49.52 l-1.57-5.1c-0.32-1.06,0.27-2.17,1.33-2.5c1.06-0.32,2.17,0.27,2.5,1.33l1.57,5.1c5.51,17.94,2.75,37.22-7.57,52.9l-2.94,4.46 C656.54,338.35,655.91,338.67,655.26,338.67z" fill="inherit"/></g><g id="change2_13"><path d="M66.29,385.4c-0.4,0-0.81-0.12-1.16-0.37l-7.32-5.2c-25.4-18.05-41.26-46.23-43.52-77.31l-0.65-8.96 c-0.08-1.1,0.75-2.06,1.85-2.14c1.09-0.07,2.06,0.75,2.14,1.85l0.65,8.96c2.18,29.88,17.43,56.98,41.85,74.34l7.32,5.2 c0.9,0.64,1.11,1.89,0.47,2.79C67.53,385.11,66.91,385.4,66.29,385.4z" fill="inherit"/></g><g id="change2_19"><path d="M68.26,360.27c-0.4,0-0.81-0.12-1.16-0.37l-4.35-3.09c-15.3-10.87-24.85-27.85-26.21-46.56l-0.39-5.32 c-0.08-1.1,0.75-2.06,1.85-2.14c1.1-0.06,2.06,0.75,2.14,1.85l0.39,5.32c1.28,17.53,10.22,33.42,24.54,43.6l4.35,3.09 c0.9,0.64,1.11,1.89,0.47,2.79C69.5,359.97,68.89,360.27,68.26,360.27z" fill="inherit"/></g><g id="change2_9"><circle cx="135.12" cy="159.68" fill="inherit" r="4.78"/></g><g id="change2_12"><circle cx="167.44" cy="150.48" fill="inherit" r="4.78"/></g><g id="change2_10"><path d="M139.32,180.57c-6.15,0-12.33-0.83-18.37-2.52c-1.06-0.3-1.68-1.4-1.38-2.47c0.3-1.06,1.4-1.68,2.47-1.38 c21.68,6.09,45.31,0.27,61.69-15.19c0.8-0.76,2.07-0.72,2.83,0.08s0.72,2.07-0.08,2.83C173.64,174.03,156.62,180.57,139.32,180.57 z" fill="inherit"/></g><g id="change2_3"><circle cx="556.15" cy="64.08" fill="inherit" r="4.78"/></g><g id="change2_7"><circle cx="523.07" cy="58.15" fill="inherit" r="4.78"/></g><g id="change2_11"><path d="M547.2,85.63c-14.96,0-29.81-4.86-41.93-14.21c-0.88-0.67-1.04-1.93-0.36-2.81c0.67-0.88,1.93-1.04,2.8-0.36 c17.83,13.75,41.92,17.2,62.89,8.98c1.03-0.4,2.19,0.1,2.59,1.13c0.4,1.03-0.1,2.19-1.13,2.59 C564.06,84.09,555.61,85.63,547.2,85.63z" fill="inherit"/></g></g></svg>